<mxfile host="app.diagrams.net" modified="2022-05-29T16:43:04.393Z" agent="5.0 (Windows NT 10.0; Win64; x64) AppleWebKit/537.36 (KHTML, like Gecko) Chrome/101.0.4951.67 Safari/537.36" etag="dotb7n0nq43I2ia-UZ6L" version="18.1.3" type="github" pages="3">
  <diagram id="4N2k-33DZ-LIu7OplJnp" name="Page-1">
    <mxGraphModel dx="3059" dy="1881" grid="1" gridSize="10" guides="1" tooltips="1" connect="1" arrows="1" fold="1" page="1" pageScale="1" pageWidth="850" pageHeight="1100" math="0" shadow="0">
      <root>
        <mxCell id="0" />
        <mxCell id="1" parent="0" />
        <UserObject label="Replica Pool" lucidchartObjectId="~UNeYl8urGwH" id="Lis689Fq3eTreHFFqHsS-1">
          <mxCell style="html=1;overflow=block;blockSpacing=1;whiteSpace=wrap;fontSize=13;fontFamily=Roboto;align=left;spacing=0;verticalAlign=top;strokeColor=none;rounded=1;absoluteArcSize=1;arcSize=3;fillColor=#E0F7FA;strokeWidth=0;container=1;pointerEvents=0;collapsible=0;recursiveResize=0;" parent="1" vertex="1">
            <mxGeometry x="840" y="510" width="240" height="300" as="geometry" />
          </mxCell>
        </UserObject>
        <UserObject label="Controler " lucidchartObjectId="XvMeUBe02C0G" id="Lis689Fq3eTreHFFqHsS-3">
          <mxCell style="html=1;overflow=block;blockSpacing=1;whiteSpace=wrap;fontSize=16.7;fontColor=#3a414a;spacing=9;strokeColor=#3a414a;strokeOpacity=100;rounded=1;absoluteArcSize=1;arcSize=9;strokeWidth=0.8;" parent="1" vertex="1">
            <mxGeometry x="600" y="315" width="120" height="90" as="geometry" />
          </mxCell>
        </UserObject>
        <UserObject label="Model" lucidchartObjectId="hwMex-IKt-Nf" id="Lis689Fq3eTreHFFqHsS-4">
          <mxCell style="html=1;overflow=block;blockSpacing=1;whiteSpace=wrap;fontSize=16.7;fontColor=#3a414a;spacing=9;strokeColor=#3a414a;strokeOpacity=100;rounded=1;absoluteArcSize=1;arcSize=9;strokeWidth=0.8;" parent="1" vertex="1">
            <mxGeometry x="402" y="510" width="120" height="90" as="geometry" />
          </mxCell>
        </UserObject>
        <UserObject label="View" lucidchartObjectId="kwMeRihz.AV-" id="Lis689Fq3eTreHFFqHsS-5">
          <mxCell style="html=1;overflow=block;blockSpacing=1;whiteSpace=wrap;fontSize=16.7;fontColor=#3a414a;spacing=9;strokeColor=#3a414a;strokeOpacity=100;rounded=1;absoluteArcSize=1;arcSize=9;strokeWidth=0.8;" parent="1" vertex="1">
            <mxGeometry x="405" y="135" width="120" height="90" as="geometry" />
          </mxCell>
        </UserObject>
        <UserObject label="" lucidchartObjectId="ExMeafbbz7AE" id="Lis689Fq3eTreHFFqHsS-6">
          <mxCell style="html=1;overflow=block;blockSpacing=1;whiteSpace=wrap;shape=mxgraph.aws4.generic_database;labelPosition=center;verticalLabelPosition=bottom;align=center;verticalAlign=top;pointerEvents=1;fontSize=13;spacing=0;strokeColor=#3a414a;strokeOpacity=100;rounded=1;absoluteArcSize=1;arcSize=9;fillColor=#232f3e;strokeWidth=0.8;" parent="1" vertex="1">
            <mxGeometry x="255" y="315" width="68" height="90" as="geometry" />
          </mxCell>
        </UserObject>
        <UserObject label="" lucidchartObjectId="dzMeQnbURXkr" id="Lis689Fq3eTreHFFqHsS-7">
          <mxCell style="html=1;jettySize=18;whiteSpace=wrap;fontSize=13;strokeColor=#3a414a;strokeOpacity=100;strokeWidth=0.8;rounded=1;arcSize=12;edgeStyle=orthogonalEdgeStyle;startArrow=none;endArrow=block;endFill=1;exitX=-0.003;exitY=0.5;exitPerimeter=0;entryX=1;entryY=0.5;entryPerimeter=0;" parent="1" source="Lis689Fq3eTreHFFqHsS-8" target="Lis689Fq3eTreHFFqHsS-6" edge="1">
            <mxGeometry width="100" height="100" relative="1" as="geometry">
              <Array as="points" />
            </mxGeometry>
          </mxCell>
        </UserObject>
        <UserObject label="ORM" lucidchartObjectId="dzMevj2nNn0G" id="Lis689Fq3eTreHFFqHsS-8">
          <mxCell style="html=1;overflow=block;blockSpacing=1;whiteSpace=wrap;fontSize=16.7;fontColor=#3a414a;spacing=9;strokeColor=#3a414a;strokeOpacity=100;rounded=1;absoluteArcSize=1;arcSize=9;strokeWidth=0.8;" parent="1" vertex="1">
            <mxGeometry x="402" y="315" width="120" height="90" as="geometry" />
          </mxCell>
        </UserObject>
        <UserObject label="Frontend" lucidchartObjectId="TBMeEDxp-zCK" id="Lis689Fq3eTreHFFqHsS-9">
          <mxCell style="html=1;overflow=block;blockSpacing=1;whiteSpace=wrap;fontSize=16.7;fontColor=#3a414a;spacing=9;strokeColor=#3a414a;strokeOpacity=100;rounded=1;absoluteArcSize=1;arcSize=9;strokeWidth=0.8;" parent="1" vertex="1">
            <mxGeometry x="940" y="274" width="120" height="90" as="geometry" />
          </mxCell>
        </UserObject>
        <UserObject label="" lucidchartObjectId=".BMeU6qH9gZT" id="Lis689Fq3eTreHFFqHsS-10">
          <mxCell style="html=1;jettySize=18;whiteSpace=wrap;fontSize=13;strokeColor=#ff8f8f;strokeOpacity=100;strokeWidth=4.5;rounded=1;arcSize=12;edgeStyle=orthogonalEdgeStyle;startArrow=none;endArrow=block;endFill=1;exitX=-0.003;exitY=0.5;exitPerimeter=0;entryX=1.003;entryY=0.5;entryPerimeter=0;" parent="1" source="Lis689Fq3eTreHFFqHsS-9" target="Lis689Fq3eTreHFFqHsS-3" edge="1">
            <mxGeometry width="100" height="100" relative="1" as="geometry">
              <Array as="points" />
            </mxGeometry>
          </mxCell>
        </UserObject>
        <UserObject label="Agent" lucidchartObjectId="pCMeO486uSvU" id="Lis689Fq3eTreHFFqHsS-11">
          <mxCell style="html=1;overflow=block;blockSpacing=1;whiteSpace=wrap;fontSize=16.7;fontColor=#3a414a;spacing=9;strokeColor=#3a414a;strokeOpacity=100;rounded=1;absoluteArcSize=1;arcSize=9;strokeWidth=0.8;" parent="1" vertex="1">
            <mxGeometry x="600" y="135" width="120" height="90" as="geometry" />
          </mxCell>
        </UserObject>
        <UserObject label="" lucidchartObjectId="dDMejkU5jVzQ" id="Lis689Fq3eTreHFFqHsS-12">
          <mxCell style="html=1;jettySize=18;whiteSpace=wrap;fontSize=13;strokeColor=#ff8f8f;strokeOpacity=100;strokeWidth=4.5;rounded=1;arcSize=12;edgeStyle=orthogonalEdgeStyle;startArrow=none;endArrow=block;endFill=1;exitX=0.5;exitY=-0.004;exitPerimeter=0;entryX=0.5;entryY=1.004;entryPerimeter=0;" parent="1" source="Lis689Fq3eTreHFFqHsS-3" target="Lis689Fq3eTreHFFqHsS-11" edge="1">
            <mxGeometry width="100" height="100" relative="1" as="geometry">
              <Array as="points" />
            </mxGeometry>
          </mxCell>
        </UserObject>
        <UserObject label="" lucidchartObjectId="gJMehToB6gi0" id="Lis689Fq3eTreHFFqHsS-13">
          <mxCell style="html=1;jettySize=18;whiteSpace=wrap;fontSize=13;strokeColor=#3a414a;strokeOpacity=100;strokeWidth=0.8;rounded=1;arcSize=12;edgeStyle=orthogonalEdgeStyle;startArrow=none;endArrow=block;endFill=1;exitX=0.5;exitY=1.004;exitPerimeter=0;entryX=1.003;entryY=0.637;entryPerimeter=0;" parent="1" source="Lis689Fq3eTreHFFqHsS-3" target="Lis689Fq3eTreHFFqHsS-4" edge="1">
            <mxGeometry width="100" height="100" relative="1" as="geometry">
              <Array as="points" />
            </mxGeometry>
          </mxCell>
        </UserObject>
        <UserObject label="" lucidchartObjectId="HJMecGPyXQwW" id="Lis689Fq3eTreHFFqHsS-14">
          <mxCell style="html=1;jettySize=18;whiteSpace=wrap;fontSize=13;strokeColor=#3a414a;strokeOpacity=100;strokeWidth=0.8;rounded=1;arcSize=12;edgeStyle=orthogonalEdgeStyle;startArrow=none;endArrow=block;endFill=1;exitX=0.672;exitY=1.004;exitPerimeter=0;entryX=0.672;entryY=-0.004;entryPerimeter=0;" parent="1" source="Lis689Fq3eTreHFFqHsS-11" target="Lis689Fq3eTreHFFqHsS-3" edge="1">
            <mxGeometry width="100" height="100" relative="1" as="geometry">
              <Array as="points" />
            </mxGeometry>
          </mxCell>
        </UserObject>
        <UserObject label="" lucidchartObjectId="sKMeMi0~tBg." id="Lis689Fq3eTreHFFqHsS-15">
          <mxCell style="html=1;jettySize=18;whiteSpace=wrap;fontSize=13;strokeColor=#3a414a;strokeOpacity=100;strokeWidth=0.8;rounded=1;arcSize=12;edgeStyle=orthogonalEdgeStyle;startArrow=none;endArrow=block;endFill=1;exitX=0.5;exitY=-0.004;exitPerimeter=0;entryX=0.5;entryY=1.004;entryPerimeter=0;" parent="1" source="Lis689Fq3eTreHFFqHsS-4" target="Lis689Fq3eTreHFFqHsS-8" edge="1">
            <mxGeometry width="100" height="100" relative="1" as="geometry">
              <Array as="points" />
            </mxGeometry>
          </mxCell>
        </UserObject>
        <UserObject label="" lucidchartObjectId="5KMeFrrLmvs9" id="Lis689Fq3eTreHFFqHsS-16">
          <mxCell style="html=1;jettySize=18;whiteSpace=wrap;fontSize=13;strokeColor=#3a414a;strokeOpacity=100;strokeWidth=0.8;rounded=1;arcSize=12;edgeStyle=orthogonalEdgeStyle;startArrow=none;endArrow=block;endFill=1;exitX=1;exitY=0.833;exitPerimeter=0;entryX=-0.003;entryY=0.833;entryPerimeter=0;" parent="1" source="Lis689Fq3eTreHFFqHsS-6" target="Lis689Fq3eTreHFFqHsS-8" edge="1">
            <mxGeometry width="100" height="100" relative="1" as="geometry">
              <Array as="points" />
            </mxGeometry>
          </mxCell>
        </UserObject>
        <UserObject label="" lucidchartObjectId="_KMeISSUF2~j" id="Lis689Fq3eTreHFFqHsS-17">
          <mxCell style="html=1;jettySize=18;whiteSpace=wrap;fontSize=13;strokeColor=#3a414a;strokeOpacity=100;strokeWidth=0.8;rounded=1;arcSize=12;edgeStyle=orthogonalEdgeStyle;startArrow=none;endArrow=block;endFill=1;exitX=0.287;exitY=1.004;exitPerimeter=0;entryX=0.287;entryY=-0.004;entryPerimeter=0;" parent="1" source="Lis689Fq3eTreHFFqHsS-8" target="Lis689Fq3eTreHFFqHsS-4" edge="1">
            <mxGeometry width="100" height="100" relative="1" as="geometry">
              <Array as="points" />
            </mxGeometry>
          </mxCell>
        </UserObject>
        <UserObject label="" lucidchartObjectId="gLMe0tlTPLpz" id="Lis689Fq3eTreHFFqHsS-18">
          <mxCell style="html=1;jettySize=18;whiteSpace=wrap;fontSize=13;strokeColor=#3a414a;strokeOpacity=100;strokeWidth=0.8;rounded=1;arcSize=12;edgeStyle=orthogonalEdgeStyle;startArrow=none;endArrow=block;endFill=1;exitX=1.003;exitY=0.309;exitPerimeter=0;entryX=0.272;entryY=1.004;entryPerimeter=0;" parent="1" source="Lis689Fq3eTreHFFqHsS-4" target="Lis689Fq3eTreHFFqHsS-3" edge="1">
            <mxGeometry width="100" height="100" relative="1" as="geometry">
              <Array as="points" />
            </mxGeometry>
          </mxCell>
        </UserObject>
        <UserObject label="" lucidchartObjectId="kLMedVt2vwXx" id="Lis689Fq3eTreHFFqHsS-19">
          <mxCell style="html=1;jettySize=18;whiteSpace=wrap;fontSize=13;strokeColor=#3a414a;strokeOpacity=100;strokeWidth=0.8;rounded=1;arcSize=12;edgeStyle=orthogonalEdgeStyle;startArrow=none;endArrow=block;endFill=1;exitX=1.003;exitY=0.715;exitPerimeter=0;entryX=-0.003;entryY=0.715;entryPerimeter=0;" parent="1" source="Lis689Fq3eTreHFFqHsS-3" target="Lis689Fq3eTreHFFqHsS-9" edge="1">
            <mxGeometry width="100" height="100" relative="1" as="geometry">
              <Array as="points" />
            </mxGeometry>
          </mxCell>
        </UserObject>
        <UserObject label="Inteprter" lucidchartObjectId="PLMezkA8A0uj" id="Lis689Fq3eTreHFFqHsS-20">
          <mxCell style="html=1;overflow=block;blockSpacing=1;whiteSpace=wrap;fontSize=16.7;fontColor=#3a414a;spacing=9;strokeColor=#3a414a;strokeOpacity=100;rounded=1;absoluteArcSize=1;arcSize=9;strokeWidth=0.8;" parent="1" vertex="1">
            <mxGeometry x="237" y="540" width="105" height="45" as="geometry" />
          </mxCell>
        </UserObject>
        <UserObject label="" lucidchartObjectId="mMMeJ8ImIEQy" id="Lis689Fq3eTreHFFqHsS-21">
          <mxCell style="html=1;jettySize=18;whiteSpace=wrap;fontSize=13;strokeColor=#3a414a;strokeOpacity=100;strokeWidth=0.8;rounded=1;arcSize=12;edgeStyle=orthogonalEdgeStyle;startArrow=none;endArrow=block;endFill=1;exitX=-0.003;exitY=0.5;exitPerimeter=0;entryX=1.003;entryY=0.333;entryPerimeter=0;" parent="1" source="Lis689Fq3eTreHFFqHsS-4" target="Lis689Fq3eTreHFFqHsS-20" edge="1">
            <mxGeometry width="100" height="100" relative="1" as="geometry">
              <Array as="points" />
            </mxGeometry>
          </mxCell>
        </UserObject>
        <UserObject label="" lucidchartObjectId="DMMem4MBNCun" id="Lis689Fq3eTreHFFqHsS-22">
          <mxCell style="html=1;jettySize=18;whiteSpace=wrap;fontSize=13;strokeColor=#3a414a;strokeOpacity=100;strokeWidth=0.8;rounded=1;arcSize=12;edgeStyle=orthogonalEdgeStyle;startArrow=none;endArrow=block;endFill=1;exitX=1.003;exitY=0.667;exitPerimeter=0;entryX=-0.003;entryY=0.667;entryPerimeter=0;" parent="1" source="Lis689Fq3eTreHFFqHsS-20" target="Lis689Fq3eTreHFFqHsS-4" edge="1">
            <mxGeometry width="100" height="100" relative="1" as="geometry">
              <Array as="points" />
            </mxGeometry>
          </mxCell>
        </UserObject>
        <UserObject label="" lucidchartObjectId="3OMeJA2MW2Ql" id="Lis689Fq3eTreHFFqHsS-23">
          <mxCell style="html=1;jettySize=18;whiteSpace=wrap;fontSize=13;strokeColor=#3a414a;strokeOpacity=100;strokeWidth=0.8;rounded=1;arcSize=12;edgeStyle=orthogonalEdgeStyle;startArrow=none;endArrow=block;endFill=1;exitX=-0.003;exitY=0.5;exitPerimeter=0;entryX=1.003;entryY=0.5;entryPerimeter=0;" parent="1" source="Lis689Fq3eTreHFFqHsS-3" target="Lis689Fq3eTreHFFqHsS-5" edge="1">
            <mxGeometry width="100" height="100" relative="1" as="geometry">
              <Array as="points" />
            </mxGeometry>
          </mxCell>
        </UserObject>
        <UserObject label="" lucidchartObjectId=".OMeNc~awGLH" id="Lis689Fq3eTreHFFqHsS-24">
          <mxCell style="html=1;jettySize=18;whiteSpace=wrap;fontSize=13;strokeColor=#3a414a;strokeOpacity=100;strokeWidth=0.8;rounded=1;arcSize=12;edgeStyle=orthogonalEdgeStyle;startArrow=none;endArrow=block;endFill=1;exitX=1.003;exitY=0.709;exitPerimeter=0;entryX=-0.003;entryY=0.155;entryPerimeter=0;" parent="1" source="Lis689Fq3eTreHFFqHsS-5" target="Lis689Fq3eTreHFFqHsS-3" edge="1">
            <mxGeometry width="100" height="100" relative="1" as="geometry">
              <Array as="points" />
            </mxGeometry>
          </mxCell>
        </UserObject>
        <UserObject label="TCP/IP" lucidchartObjectId="DbNeFGLdU5BZ" id="Lis689Fq3eTreHFFqHsS-25">
          <mxCell style="html=1;overflow=block;blockSpacing=1;whiteSpace=wrap;fontSize=16.7;fontColor=#3a414a;spacing=3.8;strokeOpacity=0;fillOpacity=0;rounded=1;absoluteArcSize=1;arcSize=9;fillColor=#ffffff;strokeWidth=0.8;" parent="1" vertex="1">
            <mxGeometry x="735" y="330" width="180" height="45" as="geometry" />
          </mxCell>
        </UserObject>
        <UserObject label="TCP/IP" lucidchartObjectId="XbNeVFIT0HGC" id="Lis689Fq3eTreHFFqHsS-26">
          <mxCell style="html=1;overflow=block;blockSpacing=1;whiteSpace=wrap;fontSize=16.7;fontColor=#3a414a;spacing=3.8;strokeOpacity=0;fillOpacity=0;rounded=1;absoluteArcSize=1;arcSize=9;fillColor=#ffffff;strokeWidth=0.8;" parent="1" vertex="1">
            <mxGeometry x="540" y="240" width="180" height="45" as="geometry" />
          </mxCell>
        </UserObject>
        <UserObject label="cache node" lucidchartObjectId="GQNe396RRbsu" id="Lis689Fq3eTreHFFqHsS-27">
          <mxCell style="html=1;overflow=block;blockSpacing=1;whiteSpace=wrap;shape=mxgraph.aws3.cache_node;labelPosition=center;verticalLabelPosition=bottom;align=center;verticalAlign=top;pointerEvents=1;fontSize=16.7;fontColor=#3a414a;spacing=3.8;strokeColor=#3a414a;strokeOpacity=100;rounded=1;absoluteArcSize=1;arcSize=9;fillColor=#2e73b8;strokeWidth=0.8;" parent="1" vertex="1">
            <mxGeometry x="120" y="195" width="86" height="105" as="geometry" />
          </mxCell>
        </UserObject>
        <UserObject label="MySQL DB instance" lucidchartObjectId="0QNeJZ13GcB4" id="Lis689Fq3eTreHFFqHsS-28">
          <mxCell style="html=1;overflow=block;blockSpacing=1;whiteSpace=wrap;shape=mxgraph.aws3.ms_sql_instance;labelPosition=center;verticalLabelPosition=bottom;align=center;verticalAlign=top;pointerEvents=1;fontSize=16.7;fontColor=#3a414a;spacing=3.8;strokeColor=#3a414a;strokeOpacity=100;rounded=1;absoluteArcSize=1;arcSize=9;fillColor=#2e73b8;strokeWidth=0.8;" parent="1" vertex="1">
            <mxGeometry x="105" y="330" width="85" height="105" as="geometry" />
          </mxCell>
        </UserObject>
        <UserObject label="generic database" lucidchartObjectId="iRNewlm_fW_k" id="Lis689Fq3eTreHFFqHsS-29">
          <mxCell style="html=1;overflow=block;blockSpacing=1;whiteSpace=wrap;shape=mxgraph.aws3.generic_database;labelPosition=center;verticalLabelPosition=bottom;align=center;verticalAlign=top;pointerEvents=1;fontSize=16.7;fontColor=#3a414a;spacing=3.8;strokeColor=#3a414a;strokeOpacity=100;rounded=1;absoluteArcSize=1;arcSize=9;fillColor=#7D7C7C;strokeWidth=0.8;" parent="1" vertex="1">
            <mxGeometry x="60" y="480" width="87" height="105" as="geometry" />
          </mxCell>
        </UserObject>
        <UserObject label="Azure SQL database" lucidchartObjectId="cTNeIejUVlXr" id="Lis689Fq3eTreHFFqHsS-30">
          <mxCell style="html=1;overflow=block;blockSpacing=1;whiteSpace=wrap;verticalLabelPosition=bottom;verticalAlign=top;shape=mxgraph.azure.sql_database_sql_azure;fontSize=13;spacing=0;strokeColor=#3a414a;strokeOpacity=100;rounded=1;absoluteArcSize=1;arcSize=9;fillColor=#0078d7;strokeWidth=0.8;" parent="1" vertex="1">
            <mxGeometry x="105" y="630" width="85" height="90" as="geometry" />
          </mxCell>
        </UserObject>
        <UserObject label="GitHub" lucidchartObjectId="nTNevd2MVmh_" id="Lis689Fq3eTreHFFqHsS-31">
          <mxCell style="html=1;overflow=block;blockSpacing=1;whiteSpace=wrap;verticalLabelPosition=bottom;verticalAlign=top;shape=mxgraph.azure.github_code;fontSize=13;spacing=0;strokeColor=#3a414a;strokeOpacity=100;rounded=1;absoluteArcSize=1;arcSize=9;fillColor=#0078d7;strokeWidth=0.8;" parent="1" vertex="1">
            <mxGeometry x="30" y="60" width="90" height="90" as="geometry" />
          </mxCell>
        </UserObject>
        <UserObject label="MySQL database" lucidchartObjectId="wTNeoD9wIdhN" id="Lis689Fq3eTreHFFqHsS-32">
          <mxCell style="html=1;overflow=block;blockSpacing=1;whiteSpace=wrap;verticalLabelPosition=bottom;verticalAlign=top;shape=mxgraph.azure.mysql_database;fontSize=13;spacing=0;strokeColor=#3a414a;strokeOpacity=100;rounded=1;absoluteArcSize=1;arcSize=9;fillColor=#0078d7;strokeWidth=0.8;" parent="1" vertex="1">
            <mxGeometry x="255" y="180" width="66" height="90" as="geometry" />
          </mxCell>
        </UserObject>
        <UserObject label="SQL database (generic)" lucidchartObjectId="PTNeDF1EIYTW" id="Lis689Fq3eTreHFFqHsS-33">
          <mxCell style="html=1;overflow=block;blockSpacing=1;whiteSpace=wrap;verticalLabelPosition=bottom;verticalAlign=top;shape=mxgraph.azure.sql_database;fontSize=13;spacing=0;strokeColor=#3a414a;strokeOpacity=100;rounded=1;absoluteArcSize=1;arcSize=9;fillColor=#0078d7;strokeWidth=0.8;" parent="1" vertex="1">
            <mxGeometry x="161" y="90" width="67" height="90" as="geometry" />
          </mxCell>
        </UserObject>
        <UserObject label="Cloud" lucidchartObjectId="fUNeonkHixcI" id="Lis689Fq3eTreHFFqHsS-34">
          <mxCell style="html=1;overflow=block;blockSpacing=1;whiteSpace=wrap;verticalLabelPosition=bottom;verticalAlign=top;shape=mxgraph.mscae.enterprise.internet;fontSize=13;spacing=0;strokeColor=#3a414a;strokeOpacity=100;rounded=1;absoluteArcSize=1;arcSize=9;fillColor=#00188f;strokeWidth=0.8;" parent="1" vertex="1">
            <mxGeometry x="252" y="60" width="90" height="54" as="geometry" />
          </mxCell>
        </UserObject>
        <UserObject label="Compute Engine" lucidchartObjectId="CVNe9xMLTHwt" id="Lis689Fq3eTreHFFqHsS-35">
          <mxCell style="overflow=block;blockSpacing=1;whiteSpace=wrap;html=1;verticalLabelPosition=bottom;verticalAlign=top;shape=mxgraph.gcp2.compute_engine;fontSize=16.7;fontColor=#3a414a;spacing=0;strokeColor=#3a414a;strokeOpacity=100;fillOpacity=100;fillColor=#4285f4;strokeWidth=0.8;" parent="1" vertex="1">
            <mxGeometry x="420" y="632" width="96" height="85" as="geometry" />
          </mxCell>
        </UserObject>
        <mxCell id="P4wAH1ma5L7GgBku4PO--1" value="" style="shape=folder;fontStyle=1;spacingTop=10;tabWidth=40;tabHeight=14;tabPosition=left;html=1;fontColor=#000000;" parent="1" vertex="1">
          <mxGeometry x="-1346" y="-44" width="1110" height="714" as="geometry" />
        </mxCell>
        <mxCell id="P4wAH1ma5L7GgBku4PO--2" value="package" style="shape=folder;fontStyle=1;spacingTop=10;tabWidth=40;tabHeight=14;tabPosition=left;html=1;fontColor=#000000;" parent="1" vertex="1">
          <mxGeometry x="-189" y="-20" width="1183" height="650" as="geometry" />
        </mxCell>
        <mxCell id="P4wAH1ma5L7GgBku4PO--3" value="&lt;&lt;TimeSeriesAnomalyDetector&gt;&gt;&#xa;" style="swimlane;fontStyle=3;align=center;verticalAlign=top;childLayout=stackLayout;horizontal=1;startSize=26;horizontalStack=0;resizeParent=1;resizeLast=0;collapsible=1;marginBottom=0;rounded=0;shadow=0;strokeWidth=1;" parent="1" vertex="1">
          <mxGeometry x="444" y="140" width="240" height="90" as="geometry">
            <mxRectangle x="230" y="140" width="160" height="26" as="alternateBounds" />
          </mxGeometry>
        </mxCell>
        <mxCell id="P4wAH1ma5L7GgBku4PO--4" value="" style="line;html=1;strokeWidth=1;align=left;verticalAlign=middle;spacingTop=-1;spacingLeft=3;spacingRight=3;rotatable=0;labelPosition=right;points=[];portConstraint=eastwest;" parent="P4wAH1ma5L7GgBku4PO--3" vertex="1">
          <mxGeometry y="26" width="240" height="8" as="geometry" />
        </mxCell>
        <mxCell id="P4wAH1ma5L7GgBku4PO--5" value="+learnNormal(TimeSeries): void&#xa;+detect(TimeSeries): List&lt;AnomalyReport&gt;" style="text;align=left;verticalAlign=top;spacingLeft=4;spacingRight=4;overflow=hidden;rotatable=0;points=[[0,0.5],[1,0.5]];portConstraint=eastwest;" parent="P4wAH1ma5L7GgBku4PO--3" vertex="1">
          <mxGeometry y="34" width="240" height="50" as="geometry" />
        </mxCell>
        <mxCell id="P4wAH1ma5L7GgBku4PO--6" value="SimpleAnomalyDetector" style="swimlane;fontStyle=1;align=center;verticalAlign=top;childLayout=stackLayout;horizontal=1;startSize=26;horizontalStack=0;resizeParent=1;resizeLast=0;collapsible=1;marginBottom=0;rounded=0;shadow=0;strokeWidth=1;" parent="1" vertex="1">
          <mxGeometry x="484" y="340" width="300" height="220" as="geometry">
            <mxRectangle x="260" y="320" width="160" height="26" as="alternateBounds" />
          </mxGeometry>
        </mxCell>
        <mxCell id="P4wAH1ma5L7GgBku4PO--7" value="Is Eligible To Enroll" style="text;align=left;verticalAlign=top;spacingLeft=4;spacingRight=4;overflow=hidden;rotatable=0;points=[[0,0.5],[1,0.5]];portConstraint=eastwest;fontStyle=4" parent="P4wAH1ma5L7GgBku4PO--6" vertex="1">
          <mxGeometry y="26" width="300" height="26" as="geometry" />
        </mxCell>
        <mxCell id="P4wAH1ma5L7GgBku4PO--8" value="+timeStep: int&#xa;+threshold: float- staric!!!!!&#xa;+correlatedFeatures: List&lt;CorrelatedFeatures&gt;&#xa;+anomalyReports: List &lt;AnomalyReport&gt;&#xa;&#xa;correlatedFeatures&#xa;" style="text;align=left;verticalAlign=top;spacingLeft=4;spacingRight=4;overflow=hidden;rotatable=0;points=[[0,0.5],[1,0.5]];portConstraint=eastwest;fontStyle=0" parent="P4wAH1ma5L7GgBku4PO--6" vertex="1">
          <mxGeometry y="52" width="300" height="64" as="geometry" />
        </mxCell>
        <mxCell id="P4wAH1ma5L7GgBku4PO--9" value="" style="line;html=1;strokeWidth=1;align=left;verticalAlign=middle;spacingTop=-1;spacingLeft=3;spacingRight=3;rotatable=0;labelPosition=right;points=[];portConstraint=eastwest;" parent="P4wAH1ma5L7GgBku4PO--6" vertex="1">
          <mxGeometry y="116" width="300" height="8" as="geometry" />
        </mxCell>
        <mxCell id="P4wAH1ma5L7GgBku4PO--10" value="+getCorrelatedFeatures():List&lt;CorrelatedFeatures&gt;&#xa;+getThreshold(): float&#xa;+setThreshold(float):void&#xa;+getTimeStep():int &#xa;+learnNormal(TimeSeries): void&#xa;+detect(TimeSeries): List&lt;AnomalyReport&gt;&#xa;&#xa;" style="text;align=left;verticalAlign=top;spacingLeft=4;spacingRight=4;overflow=hidden;rotatable=0;points=[[0,0.5],[1,0.5]];portConstraint=eastwest;" parent="P4wAH1ma5L7GgBku4PO--6" vertex="1">
          <mxGeometry y="124" width="300" height="96" as="geometry" />
        </mxCell>
        <mxCell id="P4wAH1ma5L7GgBku4PO--11" value="" style="endArrow=block;endSize=10;endFill=0;shadow=0;strokeWidth=1;rounded=0;edgeStyle=elbowEdgeStyle;elbow=vertical;" parent="1" source="P4wAH1ma5L7GgBku4PO--6" target="P4wAH1ma5L7GgBku4PO--3" edge="1">
          <mxGeometry width="160" relative="1" as="geometry">
            <mxPoint x="424" y="223" as="sourcePoint" />
            <mxPoint x="424" y="223" as="targetPoint" />
            <Array as="points">
              <mxPoint x="564" y="290" />
            </Array>
          </mxGeometry>
        </mxCell>
        <mxCell id="P4wAH1ma5L7GgBku4PO--13" value="TimeSeries" style="swimlane;fontStyle=1;align=center;verticalAlign=top;childLayout=stackLayout;horizontal=1;startSize=26;horizontalStack=0;resizeParent=1;resizeParentMax=0;resizeLast=0;collapsible=1;marginBottom=0;" parent="1" vertex="1">
          <mxGeometry x="804" y="340" width="160" height="148" as="geometry">
            <mxRectangle x="804" y="340" width="100" height="26" as="alternateBounds" />
          </mxGeometry>
        </mxCell>
        <mxCell id="P4wAH1ma5L7GgBku4PO--14" value="+headers: list&lt;String&gt;&#xa;+values: list&lt;Float[]&gt;&#xa;+timeStep:int" style="text;strokeColor=none;fillColor=none;align=left;verticalAlign=top;spacingLeft=4;spacingRight=4;overflow=hidden;rotatable=0;points=[[0,0.5],[1,0.5]];portConstraint=eastwest;" parent="P4wAH1ma5L7GgBku4PO--13" vertex="1">
          <mxGeometry y="26" width="160" height="44" as="geometry" />
        </mxCell>
        <mxCell id="P4wAH1ma5L7GgBku4PO--15" value="" style="line;strokeWidth=1;fillColor=none;align=left;verticalAlign=middle;spacingTop=-1;spacingLeft=3;spacingRight=3;rotatable=0;labelPosition=right;points=[];portConstraint=eastwest;" parent="P4wAH1ma5L7GgBku4PO--13" vertex="1">
          <mxGeometry y="70" width="160" height="8" as="geometry" />
        </mxCell>
        <mxCell id="P4wAH1ma5L7GgBku4PO--16" value="+TimeSeries(String)&#xa;+getCol(String): Float[]&#xa;+toFloat(String[]): Float[]&#xa;+getLine(int):Float[]" style="text;strokeColor=none;fillColor=none;align=left;verticalAlign=top;spacingLeft=4;spacingRight=4;overflow=hidden;rotatable=0;points=[[0,0.5],[1,0.5]];portConstraint=eastwest;" parent="P4wAH1ma5L7GgBku4PO--13" vertex="1">
          <mxGeometry y="78" width="160" height="70" as="geometry" />
        </mxCell>
        <mxCell id="P4wAH1ma5L7GgBku4PO--17" value="correlatedFeatures" style="swimlane;fontStyle=1;align=center;verticalAlign=top;childLayout=stackLayout;horizontal=1;startSize=26;horizontalStack=0;resizeParent=1;resizeParentMax=0;resizeLast=0;collapsible=1;marginBottom=0;fontColor=#000000;" parent="1" vertex="1">
          <mxGeometry x="134" y="340" width="260" height="230" as="geometry" />
        </mxCell>
        <mxCell id="P4wAH1ma5L7GgBku4PO--18" value="+feature1:String&#xa;+feature2:String&#xa;+ final corrlation:float&#xa;	+ final lin_reg:Line&#xa;	+ final threshold: float&#xa;" style="text;strokeColor=none;fillColor=none;align=left;verticalAlign=top;spacingLeft=4;spacingRight=4;overflow=hidden;rotatable=0;points=[[0,0.5],[1,0.5]];portConstraint=eastwest;fontColor=#000000;" parent="P4wAH1ma5L7GgBku4PO--17" vertex="1">
          <mxGeometry y="26" width="260" height="84" as="geometry" />
        </mxCell>
        <mxCell id="P4wAH1ma5L7GgBku4PO--19" value="" style="line;strokeWidth=1;fillColor=none;align=left;verticalAlign=middle;spacingTop=-1;spacingLeft=3;spacingRight=3;rotatable=0;labelPosition=right;points=[];portConstraint=eastwest;fontColor=#FF3399;" parent="P4wAH1ma5L7GgBku4PO--17" vertex="1">
          <mxGeometry y="110" width="260" height="8" as="geometry" />
        </mxCell>
        <mxCell id="P4wAH1ma5L7GgBku4PO--20" value="correlatedFeatures(String,String,float,Line, float)" style="text;strokeColor=none;fillColor=none;align=left;verticalAlign=top;spacingLeft=4;spacingRight=4;overflow=hidden;rotatable=0;points=[[0,0.5],[1,0.5]];portConstraint=eastwest;fontColor=#000000;fontStyle=0" parent="P4wAH1ma5L7GgBku4PO--17" vertex="1">
          <mxGeometry y="118" width="260" height="112" as="geometry" />
        </mxCell>
        <mxCell id="P4wAH1ma5L7GgBku4PO--21" value="AnomalyReport" style="swimlane;fontStyle=1;align=center;verticalAlign=top;childLayout=stackLayout;horizontal=1;startSize=26;horizontalStack=0;resizeParent=1;resizeParentMax=0;resizeLast=0;collapsible=1;marginBottom=0;fontColor=#000000;" parent="1" vertex="1">
          <mxGeometry x="-106" y="340" width="210" height="150" as="geometry" />
        </mxCell>
        <mxCell id="P4wAH1ma5L7GgBku4PO--22" value="+ description: String&#xa;+ timeStep: long&#xa;" style="text;strokeColor=none;fillColor=none;align=left;verticalAlign=top;spacingLeft=4;spacingRight=4;overflow=hidden;rotatable=0;points=[[0,0.5],[1,0.5]];portConstraint=eastwest;fontColor=#000000;" parent="P4wAH1ma5L7GgBku4PO--21" vertex="1">
          <mxGeometry y="26" width="210" height="54" as="geometry" />
        </mxCell>
        <mxCell id="P4wAH1ma5L7GgBku4PO--23" value="" style="line;strokeWidth=1;fillColor=none;align=left;verticalAlign=middle;spacingTop=-1;spacingLeft=3;spacingRight=3;rotatable=0;labelPosition=right;points=[];portConstraint=eastwest;fontColor=#000000;" parent="P4wAH1ma5L7GgBku4PO--21" vertex="1">
          <mxGeometry y="80" width="210" height="8" as="geometry" />
        </mxCell>
        <mxCell id="P4wAH1ma5L7GgBku4PO--24" value="+ AnomalyReport(String, long)" style="text;strokeColor=none;fillColor=none;align=left;verticalAlign=top;spacingLeft=4;spacingRight=4;overflow=hidden;rotatable=0;points=[[0,0.5],[1,0.5]];portConstraint=eastwest;fontColor=#000000;fontStyle=0" parent="P4wAH1ma5L7GgBku4PO--21" vertex="1">
          <mxGeometry y="88" width="210" height="62" as="geometry" />
        </mxCell>
        <mxCell id="P4wAH1ma5L7GgBku4PO--25" value="Commands" style="swimlane;fontStyle=1;align=center;verticalAlign=top;childLayout=stackLayout;horizontal=1;startSize=26;horizontalStack=0;resizeParent=1;resizeParentMax=0;resizeLast=0;collapsible=1;marginBottom=0;fontColor=#000000;" parent="1" vertex="1">
          <mxGeometry x="-916" y="32" width="310" height="134" as="geometry" />
        </mxCell>
        <mxCell id="P4wAH1ma5L7GgBku4PO--26" value="+ dio: DefaultIO&#xa;+ trainCsvFile: TimeSeries &#xa;+ testCsvFile: TimeSeries&#xa;- sharedState: SharedState ? &#xa; " style="text;strokeColor=none;fillColor=none;align=left;verticalAlign=top;spacingLeft=4;spacingRight=4;overflow=hidden;rotatable=0;points=[[0,0.5],[1,0.5]];portConstraint=eastwest;fontColor=#000000;" parent="P4wAH1ma5L7GgBku4PO--25" vertex="1">
          <mxGeometry y="26" width="310" height="74" as="geometry" />
        </mxCell>
        <mxCell id="P4wAH1ma5L7GgBku4PO--27" value="" style="line;strokeWidth=1;fillColor=none;align=left;verticalAlign=middle;spacingTop=-1;spacingLeft=3;spacingRight=3;rotatable=0;labelPosition=right;points=[];portConstraint=eastwest;fontColor=#000000;" parent="P4wAH1ma5L7GgBku4PO--25" vertex="1">
          <mxGeometry y="100" width="310" height="8" as="geometry" />
        </mxCell>
        <mxCell id="P4wAH1ma5L7GgBku4PO--28" value="+ method(type): type" style="text;strokeColor=none;fillColor=none;align=left;verticalAlign=top;spacingLeft=4;spacingRight=4;overflow=hidden;rotatable=0;points=[[0,0.5],[1,0.5]];portConstraint=eastwest;fontColor=#000000;" parent="P4wAH1ma5L7GgBku4PO--25" vertex="1">
          <mxGeometry y="108" width="310" height="26" as="geometry" />
        </mxCell>
        <mxCell id="P4wAH1ma5L7GgBku4PO--29" value="Controllet" style="text;html=1;align=center;verticalAlign=middle;resizable=0;points=[];autosize=1;strokeColor=none;fillColor=none;fontColor=#000000;" parent="1" vertex="1">
          <mxGeometry x="-1321" y="-80" width="70" height="20" as="geometry" />
        </mxCell>
        <mxCell id="P4wAH1ma5L7GgBku4PO--30" value="View" style="shape=folder;fontStyle=1;spacingTop=10;tabWidth=40;tabHeight=14;tabPosition=left;html=1;fontColor=#000000;" parent="1" vertex="1">
          <mxGeometry x="-1430" y="760" width="104" height="70" as="geometry" />
        </mxCell>
        <mxCell id="P4wAH1ma5L7GgBku4PO--31" value="CLI" style="swimlane;fontStyle=1;align=center;verticalAlign=top;childLayout=stackLayout;horizontal=1;startSize=26;horizontalStack=0;resizeParent=1;resizeParentMax=0;resizeLast=0;collapsible=1;marginBottom=0;fontColor=#000000;" parent="1" vertex="1" collapsed="1">
          <mxGeometry x="-1430" y="804" width="50" height="26" as="geometry">
            <mxRectangle x="-1640" y="830" width="220" height="200" as="alternateBounds" />
          </mxGeometry>
        </mxCell>
        <mxCell id="P4wAH1ma5L7GgBku4PO--32" value="+ commands:ArrayList&lt;Command&gt;&#xa;+ dio:DefaultIO&#xa;+ commandsClass: Commands" style="text;strokeColor=none;fillColor=none;align=left;verticalAlign=top;spacingLeft=4;spacingRight=4;overflow=hidden;rotatable=0;points=[[0,0.5],[1,0.5]];portConstraint=eastwest;fontColor=#000000;" parent="P4wAH1ma5L7GgBku4PO--31" vertex="1">
          <mxGeometry y="26" width="220" height="84" as="geometry" />
        </mxCell>
        <mxCell id="P4wAH1ma5L7GgBku4PO--33" value="" style="line;strokeWidth=1;fillColor=none;align=left;verticalAlign=middle;spacingTop=-1;spacingLeft=3;spacingRight=3;rotatable=0;labelPosition=right;points=[];portConstraint=eastwest;fontColor=#000000;" parent="P4wAH1ma5L7GgBku4PO--31" vertex="1">
          <mxGeometry y="110" width="220" height="8" as="geometry" />
        </mxCell>
        <mxCell id="P4wAH1ma5L7GgBku4PO--34" value="+ CLI(DefaultIO)&#xa;+ start(): void&#xa;+ initCommands(): void &#xa;" style="text;strokeColor=none;fillColor=none;align=left;verticalAlign=top;spacingLeft=4;spacingRight=4;overflow=hidden;rotatable=0;points=[[0,0.5],[1,0.5]];portConstraint=eastwest;fontColor=#000000;" parent="P4wAH1ma5L7GgBku4PO--31" vertex="1">
          <mxGeometry y="118" width="220" height="82" as="geometry" />
        </mxCell>
        <mxCell id="P4wAH1ma5L7GgBku4PO--35" value="SharedState" style="swimlane;fontStyle=1;align=center;verticalAlign=top;childLayout=stackLayout;horizontal=1;startSize=26;horizontalStack=0;resizeParent=1;resizeParentMax=0;resizeLast=0;collapsible=1;marginBottom=0;fontColor=#000000;" parent="1" vertex="1">
          <mxGeometry x="-1251" y="224" width="205" height="190" as="geometry" />
        </mxCell>
        <mxCell id="P4wAH1ma5L7GgBku4PO--36" value="+ field: type" style="text;strokeColor=none;fillColor=none;align=left;verticalAlign=top;spacingLeft=4;spacingRight=4;overflow=hidden;rotatable=0;points=[[0,0.5],[1,0.5]];portConstraint=eastwest;fontColor=#000000;" parent="P4wAH1ma5L7GgBku4PO--35" vertex="1">
          <mxGeometry y="26" width="205" height="84" as="geometry" />
        </mxCell>
        <mxCell id="P4wAH1ma5L7GgBku4PO--37" value="" style="line;strokeWidth=1;fillColor=none;align=left;verticalAlign=middle;spacingTop=-1;spacingLeft=3;spacingRight=3;rotatable=0;labelPosition=right;points=[];portConstraint=eastwest;fontColor=#000000;" parent="P4wAH1ma5L7GgBku4PO--35" vertex="1">
          <mxGeometry y="110" width="205" height="8" as="geometry" />
        </mxCell>
        <mxCell id="P4wAH1ma5L7GgBku4PO--38" value="+ method(type): type" style="text;strokeColor=none;fillColor=none;align=left;verticalAlign=top;spacingLeft=4;spacingRight=4;overflow=hidden;rotatable=0;points=[[0,0.5],[1,0.5]];portConstraint=eastwest;fontColor=#000000;" parent="P4wAH1ma5L7GgBku4PO--35" vertex="1">
          <mxGeometry y="118" width="205" height="72" as="geometry" />
        </mxCell>
        <mxCell id="P4wAH1ma5L7GgBku4PO--39" value="&lt;&lt;DefaultIO&gt;&gt;" style="swimlane;fontStyle=1;align=center;verticalAlign=top;childLayout=stackLayout;horizontal=1;startSize=26;horizontalStack=0;resizeParent=1;resizeParentMax=0;resizeLast=0;collapsible=1;marginBottom=0;fontColor=#000000;" parent="1" vertex="1">
          <mxGeometry x="-1006" y="224" width="205" height="160" as="geometry" />
        </mxCell>
        <mxCell id="P4wAH1ma5L7GgBku4PO--40" value="" style="line;strokeWidth=1;fillColor=none;align=left;verticalAlign=middle;spacingTop=-1;spacingLeft=3;spacingRight=3;rotatable=0;labelPosition=right;points=[];portConstraint=eastwest;fontColor=#000000;" parent="P4wAH1ma5L7GgBku4PO--39" vertex="1">
          <mxGeometry y="26" width="205" height="64" as="geometry" />
        </mxCell>
        <mxCell id="P4wAH1ma5L7GgBku4PO--41" value="+ readText():String &#xa;+ write(String text): void &#xa;+ readVal():float " style="text;strokeColor=none;fillColor=none;align=left;verticalAlign=top;spacingLeft=4;spacingRight=4;overflow=hidden;rotatable=0;points=[[0,0.5],[1,0.5]];portConstraint=eastwest;fontColor=#000000;" parent="P4wAH1ma5L7GgBku4PO--39" vertex="1">
          <mxGeometry y="90" width="205" height="70" as="geometry" />
        </mxCell>
      </root>
    </mxGraphModel>
  </diagram>
  <diagram id="A-wYX46qTc6R5bd5-GVU" name="Page-2">
    <mxGraphModel dx="3059" dy="1881" grid="1" gridSize="10" guides="1" tooltips="1" connect="1" arrows="1" fold="1" page="1" pageScale="1" pageWidth="850" pageHeight="1100" math="0" shadow="0">
      <root>
        <mxCell id="0" />
        <mxCell id="1" parent="0" />
        <mxCell id="Rr9_GLdwbdiZDzwz6cel-1" value="" style="shape=folder;fontStyle=1;spacingTop=10;tabWidth=40;tabHeight=14;tabPosition=left;html=1;fontColor=#000000;" parent="1" vertex="1">
          <mxGeometry x="-1570" y="-64" width="1110" height="714" as="geometry" />
        </mxCell>
        <mxCell id="Rr9_GLdwbdiZDzwz6cel-2" value="package" style="shape=folder;fontStyle=1;spacingTop=10;tabWidth=40;tabHeight=14;tabPosition=left;html=1;fontColor=#000000;" parent="1" vertex="1">
          <mxGeometry x="-413" y="-40" width="1183" height="650" as="geometry" />
        </mxCell>
        <mxCell id="Rr9_GLdwbdiZDzwz6cel-3" value="&lt;&lt;TimeSeriesAnomalyDetector&gt;&gt;&#xa;" style="swimlane;fontStyle=3;align=center;verticalAlign=top;childLayout=stackLayout;horizontal=1;startSize=26;horizontalStack=0;resizeParent=1;resizeLast=0;collapsible=1;marginBottom=0;rounded=0;shadow=0;strokeWidth=1;" parent="1" vertex="1">
          <mxGeometry x="220" y="120" width="240" height="90" as="geometry">
            <mxRectangle x="230" y="140" width="160" height="26" as="alternateBounds" />
          </mxGeometry>
        </mxCell>
        <mxCell id="Rr9_GLdwbdiZDzwz6cel-4" value="" style="line;html=1;strokeWidth=1;align=left;verticalAlign=middle;spacingTop=-1;spacingLeft=3;spacingRight=3;rotatable=0;labelPosition=right;points=[];portConstraint=eastwest;" parent="Rr9_GLdwbdiZDzwz6cel-3" vertex="1">
          <mxGeometry y="26" width="240" height="8" as="geometry" />
        </mxCell>
        <mxCell id="Rr9_GLdwbdiZDzwz6cel-5" value="+learnNormal(TimeSeries): void&#xa;+detect(TimeSeries): List&lt;AnomalyReport&gt;" style="text;align=left;verticalAlign=top;spacingLeft=4;spacingRight=4;overflow=hidden;rotatable=0;points=[[0,0.5],[1,0.5]];portConstraint=eastwest;" parent="Rr9_GLdwbdiZDzwz6cel-3" vertex="1">
          <mxGeometry y="34" width="240" height="50" as="geometry" />
        </mxCell>
        <mxCell id="Rr9_GLdwbdiZDzwz6cel-6" value="SimpleAnomalyDetector" style="swimlane;fontStyle=1;align=center;verticalAlign=top;childLayout=stackLayout;horizontal=1;startSize=26;horizontalStack=0;resizeParent=1;resizeLast=0;collapsible=1;marginBottom=0;rounded=0;shadow=0;strokeWidth=1;" parent="1" vertex="1">
          <mxGeometry x="260" y="320" width="300" height="220" as="geometry">
            <mxRectangle x="260" y="320" width="160" height="26" as="alternateBounds" />
          </mxGeometry>
        </mxCell>
        <mxCell id="Rr9_GLdwbdiZDzwz6cel-7" value="Is Eligible To Enroll" style="text;align=left;verticalAlign=top;spacingLeft=4;spacingRight=4;overflow=hidden;rotatable=0;points=[[0,0.5],[1,0.5]];portConstraint=eastwest;fontStyle=4" parent="Rr9_GLdwbdiZDzwz6cel-6" vertex="1">
          <mxGeometry y="26" width="300" height="26" as="geometry" />
        </mxCell>
        <mxCell id="Rr9_GLdwbdiZDzwz6cel-8" value="+timeStep: int&#xa;+threshold: float- staric!!!!!&#xa;+correlatedFeatures: List&lt;CorrelatedFeatures&gt;&#xa;+anomalyReports: List &lt;AnomalyReport&gt;&#xa;&#xa;correlatedFeatures&#xa;" style="text;align=left;verticalAlign=top;spacingLeft=4;spacingRight=4;overflow=hidden;rotatable=0;points=[[0,0.5],[1,0.5]];portConstraint=eastwest;fontStyle=0" parent="Rr9_GLdwbdiZDzwz6cel-6" vertex="1">
          <mxGeometry y="52" width="300" height="64" as="geometry" />
        </mxCell>
        <mxCell id="Rr9_GLdwbdiZDzwz6cel-9" value="" style="line;html=1;strokeWidth=1;align=left;verticalAlign=middle;spacingTop=-1;spacingLeft=3;spacingRight=3;rotatable=0;labelPosition=right;points=[];portConstraint=eastwest;" parent="Rr9_GLdwbdiZDzwz6cel-6" vertex="1">
          <mxGeometry y="116" width="300" height="8" as="geometry" />
        </mxCell>
        <mxCell id="Rr9_GLdwbdiZDzwz6cel-10" value="+getCorrelatedFeatures():List&lt;CorrelatedFeatures&gt;&#xa;+getThreshold(): float&#xa;+setThreshold(float):void&#xa;+getTimeStep():int &#xa;+learnNormal(TimeSeries): void&#xa;+detect(TimeSeries): List&lt;AnomalyReport&gt;&#xa;&#xa;" style="text;align=left;verticalAlign=top;spacingLeft=4;spacingRight=4;overflow=hidden;rotatable=0;points=[[0,0.5],[1,0.5]];portConstraint=eastwest;" parent="Rr9_GLdwbdiZDzwz6cel-6" vertex="1">
          <mxGeometry y="124" width="300" height="96" as="geometry" />
        </mxCell>
        <mxCell id="Rr9_GLdwbdiZDzwz6cel-11" value="" style="endArrow=block;endSize=10;endFill=0;shadow=0;strokeWidth=1;rounded=0;edgeStyle=elbowEdgeStyle;elbow=vertical;" parent="1" source="Rr9_GLdwbdiZDzwz6cel-6" target="Rr9_GLdwbdiZDzwz6cel-3" edge="1">
          <mxGeometry width="160" relative="1" as="geometry">
            <mxPoint x="200" y="203" as="sourcePoint" />
            <mxPoint x="200" y="203" as="targetPoint" />
            <Array as="points">
              <mxPoint x="340" y="270" />
            </Array>
          </mxGeometry>
        </mxCell>
        <mxCell id="Rr9_GLdwbdiZDzwz6cel-13" value="TimeSeries" style="swimlane;fontStyle=1;align=center;verticalAlign=top;childLayout=stackLayout;horizontal=1;startSize=26;horizontalStack=0;resizeParent=1;resizeParentMax=0;resizeLast=0;collapsible=1;marginBottom=0;" parent="1" vertex="1" collapsed="1">
          <mxGeometry x="580" y="320" width="100" height="26" as="geometry">
            <mxRectangle x="530" y="320" width="160" height="148" as="alternateBounds" />
          </mxGeometry>
        </mxCell>
        <mxCell id="Rr9_GLdwbdiZDzwz6cel-14" value="+headers: list&lt;String&gt;&#xa;+values: list&lt;Float[]&gt;&#xa;+timeStep:int" style="text;strokeColor=none;fillColor=none;align=left;verticalAlign=top;spacingLeft=4;spacingRight=4;overflow=hidden;rotatable=0;points=[[0,0.5],[1,0.5]];portConstraint=eastwest;" parent="Rr9_GLdwbdiZDzwz6cel-13" vertex="1">
          <mxGeometry y="26" width="160" height="44" as="geometry" />
        </mxCell>
        <mxCell id="Rr9_GLdwbdiZDzwz6cel-15" value="" style="line;strokeWidth=1;fillColor=none;align=left;verticalAlign=middle;spacingTop=-1;spacingLeft=3;spacingRight=3;rotatable=0;labelPosition=right;points=[];portConstraint=eastwest;" parent="Rr9_GLdwbdiZDzwz6cel-13" vertex="1">
          <mxGeometry y="70" width="160" height="8" as="geometry" />
        </mxCell>
        <mxCell id="Rr9_GLdwbdiZDzwz6cel-16" value="+TimeSeries(String)&#xa;+getCol(String): Float[]&#xa;+toFloat(String[]): Float[]&#xa;+getLine(int):Float[]" style="text;strokeColor=none;fillColor=none;align=left;verticalAlign=top;spacingLeft=4;spacingRight=4;overflow=hidden;rotatable=0;points=[[0,0.5],[1,0.5]];portConstraint=eastwest;" parent="Rr9_GLdwbdiZDzwz6cel-13" vertex="1">
          <mxGeometry y="78" width="160" height="70" as="geometry" />
        </mxCell>
        <mxCell id="Rr9_GLdwbdiZDzwz6cel-17" value="correlatedFeatures" style="swimlane;fontStyle=1;align=center;verticalAlign=top;childLayout=stackLayout;horizontal=1;startSize=26;horizontalStack=0;resizeParent=1;resizeParentMax=0;resizeLast=0;collapsible=1;marginBottom=0;fontColor=#000000;" parent="1" vertex="1">
          <mxGeometry x="-90" y="320" width="260" height="230" as="geometry" />
        </mxCell>
        <mxCell id="Rr9_GLdwbdiZDzwz6cel-18" value="+feature1:String&#xa;+feature2:String&#xa;+ final corrlation:float&#xa;	+ final lin_reg:Line&#xa;	+ final threshold: float&#xa;" style="text;strokeColor=none;fillColor=none;align=left;verticalAlign=top;spacingLeft=4;spacingRight=4;overflow=hidden;rotatable=0;points=[[0,0.5],[1,0.5]];portConstraint=eastwest;fontColor=#000000;" parent="Rr9_GLdwbdiZDzwz6cel-17" vertex="1">
          <mxGeometry y="26" width="260" height="84" as="geometry" />
        </mxCell>
        <mxCell id="Rr9_GLdwbdiZDzwz6cel-19" value="" style="line;strokeWidth=1;fillColor=none;align=left;verticalAlign=middle;spacingTop=-1;spacingLeft=3;spacingRight=3;rotatable=0;labelPosition=right;points=[];portConstraint=eastwest;fontColor=#FF3399;" parent="Rr9_GLdwbdiZDzwz6cel-17" vertex="1">
          <mxGeometry y="110" width="260" height="8" as="geometry" />
        </mxCell>
        <mxCell id="Rr9_GLdwbdiZDzwz6cel-20" value="correlatedFeatures(String,String,float,Line, float)" style="text;strokeColor=none;fillColor=none;align=left;verticalAlign=top;spacingLeft=4;spacingRight=4;overflow=hidden;rotatable=0;points=[[0,0.5],[1,0.5]];portConstraint=eastwest;fontColor=#000000;fontStyle=0" parent="Rr9_GLdwbdiZDzwz6cel-17" vertex="1">
          <mxGeometry y="118" width="260" height="112" as="geometry" />
        </mxCell>
        <mxCell id="Rr9_GLdwbdiZDzwz6cel-21" value="AnomalyReport" style="swimlane;fontStyle=1;align=center;verticalAlign=top;childLayout=stackLayout;horizontal=1;startSize=26;horizontalStack=0;resizeParent=1;resizeParentMax=0;resizeLast=0;collapsible=1;marginBottom=0;fontColor=#000000;" parent="1" vertex="1">
          <mxGeometry x="-330" y="320" width="210" height="150" as="geometry" />
        </mxCell>
        <mxCell id="Rr9_GLdwbdiZDzwz6cel-22" value="+ description: String&#xa;+ timeStep: long&#xa;" style="text;strokeColor=none;fillColor=none;align=left;verticalAlign=top;spacingLeft=4;spacingRight=4;overflow=hidden;rotatable=0;points=[[0,0.5],[1,0.5]];portConstraint=eastwest;fontColor=#000000;" parent="Rr9_GLdwbdiZDzwz6cel-21" vertex="1">
          <mxGeometry y="26" width="210" height="54" as="geometry" />
        </mxCell>
        <mxCell id="Rr9_GLdwbdiZDzwz6cel-23" value="" style="line;strokeWidth=1;fillColor=none;align=left;verticalAlign=middle;spacingTop=-1;spacingLeft=3;spacingRight=3;rotatable=0;labelPosition=right;points=[];portConstraint=eastwest;fontColor=#000000;" parent="Rr9_GLdwbdiZDzwz6cel-21" vertex="1">
          <mxGeometry y="80" width="210" height="8" as="geometry" />
        </mxCell>
        <mxCell id="Rr9_GLdwbdiZDzwz6cel-24" value="+ AnomalyReport(String, long)" style="text;strokeColor=none;fillColor=none;align=left;verticalAlign=top;spacingLeft=4;spacingRight=4;overflow=hidden;rotatable=0;points=[[0,0.5],[1,0.5]];portConstraint=eastwest;fontColor=#000000;fontStyle=0" parent="Rr9_GLdwbdiZDzwz6cel-21" vertex="1">
          <mxGeometry y="88" width="210" height="62" as="geometry" />
        </mxCell>
        <mxCell id="Rr9_GLdwbdiZDzwz6cel-25" value="Commands" style="swimlane;fontStyle=1;align=center;verticalAlign=top;childLayout=stackLayout;horizontal=1;startSize=26;horizontalStack=0;resizeParent=1;resizeParentMax=0;resizeLast=0;collapsible=1;marginBottom=0;fontColor=#000000;" parent="1" vertex="1">
          <mxGeometry x="-1140" y="12" width="310" height="134" as="geometry" />
        </mxCell>
        <mxCell id="Rr9_GLdwbdiZDzwz6cel-26" value="+ dio: DefaultIO&#xa;+ trainCsvFile: TimeSeries &#xa;+ testCsvFile: TimeSeries&#xa;- sharedState: SharedState ? &#xa; " style="text;strokeColor=none;fillColor=none;align=left;verticalAlign=top;spacingLeft=4;spacingRight=4;overflow=hidden;rotatable=0;points=[[0,0.5],[1,0.5]];portConstraint=eastwest;fontColor=#000000;" parent="Rr9_GLdwbdiZDzwz6cel-25" vertex="1">
          <mxGeometry y="26" width="310" height="74" as="geometry" />
        </mxCell>
        <mxCell id="Rr9_GLdwbdiZDzwz6cel-27" value="" style="line;strokeWidth=1;fillColor=none;align=left;verticalAlign=middle;spacingTop=-1;spacingLeft=3;spacingRight=3;rotatable=0;labelPosition=right;points=[];portConstraint=eastwest;fontColor=#000000;" parent="Rr9_GLdwbdiZDzwz6cel-25" vertex="1">
          <mxGeometry y="100" width="310" height="8" as="geometry" />
        </mxCell>
        <mxCell id="Rr9_GLdwbdiZDzwz6cel-28" value="+ method(type): type" style="text;strokeColor=none;fillColor=none;align=left;verticalAlign=top;spacingLeft=4;spacingRight=4;overflow=hidden;rotatable=0;points=[[0,0.5],[1,0.5]];portConstraint=eastwest;fontColor=#000000;" parent="Rr9_GLdwbdiZDzwz6cel-25" vertex="1">
          <mxGeometry y="108" width="310" height="26" as="geometry" />
        </mxCell>
        <mxCell id="Rr9_GLdwbdiZDzwz6cel-29" value="Controllet" style="text;html=1;align=center;verticalAlign=middle;resizable=0;points=[];autosize=1;strokeColor=none;fillColor=none;fontColor=#000000;" parent="1" vertex="1">
          <mxGeometry x="-1545" y="-100" width="70" height="20" as="geometry" />
        </mxCell>
        <mxCell id="Rr9_GLdwbdiZDzwz6cel-30" value="View" style="shape=folder;fontStyle=1;spacingTop=10;tabWidth=40;tabHeight=14;tabPosition=left;html=1;fontColor=#000000;" parent="1" vertex="1">
          <mxGeometry x="-1654" y="740" width="104" height="70" as="geometry" />
        </mxCell>
        <mxCell id="Rr9_GLdwbdiZDzwz6cel-31" value="CLI" style="swimlane;fontStyle=1;align=center;verticalAlign=top;childLayout=stackLayout;horizontal=1;startSize=26;horizontalStack=0;resizeParent=1;resizeParentMax=0;resizeLast=0;collapsible=1;marginBottom=0;fontColor=#000000;" parent="1" vertex="1" collapsed="1">
          <mxGeometry x="-1654" y="784" width="50" height="26" as="geometry">
            <mxRectangle x="-1640" y="830" width="220" height="200" as="alternateBounds" />
          </mxGeometry>
        </mxCell>
        <mxCell id="Rr9_GLdwbdiZDzwz6cel-32" value="+ commands:ArrayList&lt;Command&gt;&#xa;+ dio:DefaultIO&#xa;+ commandsClass: Commands" style="text;strokeColor=none;fillColor=none;align=left;verticalAlign=top;spacingLeft=4;spacingRight=4;overflow=hidden;rotatable=0;points=[[0,0.5],[1,0.5]];portConstraint=eastwest;fontColor=#000000;" parent="Rr9_GLdwbdiZDzwz6cel-31" vertex="1">
          <mxGeometry y="26" width="220" height="84" as="geometry" />
        </mxCell>
        <mxCell id="Rr9_GLdwbdiZDzwz6cel-33" value="" style="line;strokeWidth=1;fillColor=none;align=left;verticalAlign=middle;spacingTop=-1;spacingLeft=3;spacingRight=3;rotatable=0;labelPosition=right;points=[];portConstraint=eastwest;fontColor=#000000;" parent="Rr9_GLdwbdiZDzwz6cel-31" vertex="1">
          <mxGeometry y="110" width="220" height="8" as="geometry" />
        </mxCell>
        <mxCell id="Rr9_GLdwbdiZDzwz6cel-34" value="+ CLI(DefaultIO)&#xa;+ start(): void&#xa;+ initCommands(): void &#xa;" style="text;strokeColor=none;fillColor=none;align=left;verticalAlign=top;spacingLeft=4;spacingRight=4;overflow=hidden;rotatable=0;points=[[0,0.5],[1,0.5]];portConstraint=eastwest;fontColor=#000000;" parent="Rr9_GLdwbdiZDzwz6cel-31" vertex="1">
          <mxGeometry y="118" width="220" height="82" as="geometry" />
        </mxCell>
        <mxCell id="Rr9_GLdwbdiZDzwz6cel-35" value="SharedState" style="swimlane;fontStyle=1;align=center;verticalAlign=top;childLayout=stackLayout;horizontal=1;startSize=26;horizontalStack=0;resizeParent=1;resizeParentMax=0;resizeLast=0;collapsible=1;marginBottom=0;fontColor=#000000;" parent="1" vertex="1">
          <mxGeometry x="-1475" y="204" width="205" height="190" as="geometry" />
        </mxCell>
        <mxCell id="Rr9_GLdwbdiZDzwz6cel-36" value="+ field: type" style="text;strokeColor=none;fillColor=none;align=left;verticalAlign=top;spacingLeft=4;spacingRight=4;overflow=hidden;rotatable=0;points=[[0,0.5],[1,0.5]];portConstraint=eastwest;fontColor=#000000;" parent="Rr9_GLdwbdiZDzwz6cel-35" vertex="1">
          <mxGeometry y="26" width="205" height="84" as="geometry" />
        </mxCell>
        <mxCell id="Rr9_GLdwbdiZDzwz6cel-37" value="" style="line;strokeWidth=1;fillColor=none;align=left;verticalAlign=middle;spacingTop=-1;spacingLeft=3;spacingRight=3;rotatable=0;labelPosition=right;points=[];portConstraint=eastwest;fontColor=#000000;" parent="Rr9_GLdwbdiZDzwz6cel-35" vertex="1">
          <mxGeometry y="110" width="205" height="8" as="geometry" />
        </mxCell>
        <mxCell id="Rr9_GLdwbdiZDzwz6cel-38" value="+ method(type): type" style="text;strokeColor=none;fillColor=none;align=left;verticalAlign=top;spacingLeft=4;spacingRight=4;overflow=hidden;rotatable=0;points=[[0,0.5],[1,0.5]];portConstraint=eastwest;fontColor=#000000;" parent="Rr9_GLdwbdiZDzwz6cel-35" vertex="1">
          <mxGeometry y="118" width="205" height="72" as="geometry" />
        </mxCell>
        <mxCell id="Rr9_GLdwbdiZDzwz6cel-39" value="&lt;&lt;DefaultIO&gt;&gt;" style="swimlane;fontStyle=1;align=center;verticalAlign=top;childLayout=stackLayout;horizontal=1;startSize=26;horizontalStack=0;resizeParent=1;resizeParentMax=0;resizeLast=0;collapsible=1;marginBottom=0;fontColor=#000000;" parent="1" vertex="1">
          <mxGeometry x="-1230" y="204" width="205" height="160" as="geometry" />
        </mxCell>
        <mxCell id="Rr9_GLdwbdiZDzwz6cel-40" value="" style="line;strokeWidth=1;fillColor=none;align=left;verticalAlign=middle;spacingTop=-1;spacingLeft=3;spacingRight=3;rotatable=0;labelPosition=right;points=[];portConstraint=eastwest;fontColor=#000000;" parent="Rr9_GLdwbdiZDzwz6cel-39" vertex="1">
          <mxGeometry y="26" width="205" height="64" as="geometry" />
        </mxCell>
        <mxCell id="Rr9_GLdwbdiZDzwz6cel-41" value="+ readText():String &#xa;+ write(String text): void &#xa;+ readVal():float " style="text;strokeColor=none;fillColor=none;align=left;verticalAlign=top;spacingLeft=4;spacingRight=4;overflow=hidden;rotatable=0;points=[[0,0.5],[1,0.5]];portConstraint=eastwest;fontColor=#000000;" parent="Rr9_GLdwbdiZDzwz6cel-39" vertex="1">
          <mxGeometry y="90" width="205" height="70" as="geometry" />
        </mxCell>
      </root>
    </mxGraphModel>
  </diagram>
  <diagram id="nP0xIMj3Phfa9z1Khb2O" name="Model- Statics">
    <mxGraphModel dx="2251" dy="784" grid="1" gridSize="10" guides="1" tooltips="1" connect="1" arrows="1" fold="1" page="1" pageScale="1" pageWidth="850" pageHeight="1100" math="0" shadow="0">
      <root>
        <mxCell id="0" />
        <mxCell id="1" parent="0" />
        <mxCell id="wGFnZ818MzuRewItJlfe-17" style="rounded=0;orthogonalLoop=1;jettySize=auto;html=1;exitX=0.332;exitY=0.017;exitDx=0;exitDy=0;endArrow=block;endFill=0;strokeColor=#000000;startSize=12;edgeStyle=elbowEdgeStyle;elbow=vertical;dashed=1;entryX=0.25;entryY=1;entryDx=0;entryDy=0;exitPerimeter=0;" parent="1" source="sZQcOmVma0XdY6LIlIUO-9" target="P_GiTQXY6lSVG06fz7WC-1" edge="1">
          <mxGeometry relative="1" as="geometry">
            <mxPoint x="98" y="50" as="targetPoint" />
            <mxPoint x="-89.52" y="140" as="sourcePoint" />
          </mxGeometry>
        </mxCell>
        <mxCell id="wGFnZ818MzuRewItJlfe-5" value="ZscoreAlgorithm " style="swimlane;fontStyle=1;align=center;verticalAlign=top;childLayout=stackLayout;horizontal=1;startSize=26;horizontalStack=0;resizeParent=1;resizeParentMax=0;resizeLast=0;collapsible=1;marginBottom=0;" parent="1" vertex="1">
          <mxGeometry x="230" y="302" width="160" height="86" as="geometry" />
        </mxCell>
        <mxCell id="wGFnZ818MzuRewItJlfe-6" value="+ field: type" style="text;strokeColor=none;fillColor=none;align=left;verticalAlign=top;spacingLeft=4;spacingRight=4;overflow=hidden;rotatable=0;points=[[0,0.5],[1,0.5]];portConstraint=eastwest;" parent="wGFnZ818MzuRewItJlfe-5" vertex="1">
          <mxGeometry y="26" width="160" height="26" as="geometry" />
        </mxCell>
        <mxCell id="wGFnZ818MzuRewItJlfe-7" value="" style="line;strokeWidth=1;fillColor=none;align=left;verticalAlign=middle;spacingTop=-1;spacingLeft=3;spacingRight=3;rotatable=0;labelPosition=right;points=[];portConstraint=eastwest;" parent="wGFnZ818MzuRewItJlfe-5" vertex="1">
          <mxGeometry y="52" width="160" height="8" as="geometry" />
        </mxCell>
        <mxCell id="wGFnZ818MzuRewItJlfe-8" value="+learnNormal():float&#xa;  &#xa; &#xa;&#xa;&#xa;" style="text;strokeColor=none;fillColor=none;align=left;verticalAlign=top;spacingLeft=4;spacingRight=4;overflow=hidden;rotatable=0;points=[[0,0.5],[1,0.5]];portConstraint=eastwest;" parent="wGFnZ818MzuRewItJlfe-5" vertex="1">
          <mxGeometry y="60" width="160" height="26" as="geometry" />
        </mxCell>
        <mxCell id="wGFnZ818MzuRewItJlfe-13" value="WelzlAlgorithm" style="swimlane;fontStyle=1;align=center;verticalAlign=top;childLayout=stackLayout;horizontal=1;startSize=26;horizontalStack=0;resizeParent=1;resizeParentMax=0;resizeLast=0;collapsible=1;marginBottom=0;fillColor=#f8cecc;strokeColor=#b85450;" parent="1" vertex="1">
          <mxGeometry x="-170" y="370" width="340" height="70" as="geometry" />
        </mxCell>
        <mxCell id="wGFnZ818MzuRewItJlfe-15" value="" style="line;strokeWidth=1;fillColor=none;align=left;verticalAlign=middle;spacingTop=-1;spacingLeft=3;spacingRight=3;rotatable=0;labelPosition=right;points=[];portConstraint=eastwest;" parent="wGFnZ818MzuRewItJlfe-13" vertex="1">
          <mxGeometry y="26" width="340" height="8" as="geometry" />
        </mxCell>
        <mxCell id="wGFnZ818MzuRewItJlfe-16" value="+ welzlHelper(ArrayList&lt;Point&gt; , ArrayList&lt;Point&gt;,int): Circle&#xa;+welzl(ArrayList&lt;Point&gt;):Circle" style="text;strokeColor=none;fillColor=none;align=left;verticalAlign=middle;spacingLeft=4;spacingRight=4;overflow=hidden;rotatable=0;points=[[0,0.5],[1,0.5]];portConstraint=eastwest;" parent="wGFnZ818MzuRewItJlfe-13" vertex="1">
          <mxGeometry y="34" width="340" height="36" as="geometry" />
        </mxCell>
        <mxCell id="wGFnZ818MzuRewItJlfe-20" value="statLib " style="swimlane;fontStyle=1;align=center;verticalAlign=top;childLayout=stackLayout;horizontal=1;startSize=26;horizontalStack=0;resizeParent=1;resizeParentMax=0;resizeLast=0;collapsible=1;marginBottom=0;fillColor=#f8cecc;strokeColor=#b85450;" parent="1" vertex="1">
          <mxGeometry x="750" y="70" width="210" height="160" as="geometry" />
        </mxCell>
        <mxCell id="wGFnZ818MzuRewItJlfe-22" value="" style="line;strokeWidth=1;fillColor=none;align=left;verticalAlign=middle;spacingTop=-1;spacingLeft=3;spacingRight=3;rotatable=0;labelPosition=right;points=[];portConstraint=eastwest;" parent="wGFnZ818MzuRewItJlfe-20" vertex="1">
          <mxGeometry y="26" width="210" height="8" as="geometry" />
        </mxCell>
        <mxCell id="wGFnZ818MzuRewItJlfe-23" value="+avg(float[]):float&#xa;+var(float[]):float&#xa;+cov(float[], float[]):float&#xa;+pearson(float[], float[]):float&#xa;+linear_reg(Points[]):Line&#xa;+dev(Point, Point[]):float&#xa;+dev(Point, Line):float&#xa;+arrayOfPoints(float[],float[]):Point[]" style="text;strokeColor=none;fillColor=none;align=left;verticalAlign=top;spacingLeft=4;spacingRight=4;overflow=hidden;rotatable=0;points=[[0,0.5],[1,0.5]];portConstraint=eastwest;fontStyle=4" parent="wGFnZ818MzuRewItJlfe-20" vertex="1">
          <mxGeometry y="34" width="210" height="126" as="geometry" />
        </mxCell>
        <mxCell id="wGFnZ818MzuRewItJlfe-24" value="Line" style="swimlane;fontStyle=1;align=center;verticalAlign=top;childLayout=stackLayout;horizontal=1;startSize=26;horizontalStack=0;resizeParent=1;resizeParentMax=0;resizeLast=0;collapsible=1;marginBottom=0;fillColor=#f8cecc;strokeColor=#b85450;" parent="1" vertex="1">
          <mxGeometry x="880" y="400" width="160" height="118" as="geometry" />
        </mxCell>
        <mxCell id="wGFnZ818MzuRewItJlfe-25" value="+A:float&#xa;+B:float" style="text;strokeColor=none;fillColor=none;align=left;verticalAlign=top;spacingLeft=4;spacingRight=4;overflow=hidden;rotatable=0;points=[[0,0.5],[1,0.5]];portConstraint=eastwest;" parent="wGFnZ818MzuRewItJlfe-24" vertex="1">
          <mxGeometry y="26" width="160" height="44" as="geometry" />
        </mxCell>
        <mxCell id="wGFnZ818MzuRewItJlfe-26" value="" style="line;strokeWidth=1;fillColor=none;align=left;verticalAlign=middle;spacingTop=-1;spacingLeft=3;spacingRight=3;rotatable=0;labelPosition=right;points=[];portConstraint=eastwest;" parent="wGFnZ818MzuRewItJlfe-24" vertex="1">
          <mxGeometry y="70" width="160" height="8" as="geometry" />
        </mxCell>
        <mxCell id="wGFnZ818MzuRewItJlfe-27" value="+Line(float, float)&#xa;+f(float):float" style="text;strokeColor=none;fillColor=none;align=left;verticalAlign=top;spacingLeft=4;spacingRight=4;overflow=hidden;rotatable=0;points=[[0,0.5],[1,0.5]];portConstraint=eastwest;" parent="wGFnZ818MzuRewItJlfe-24" vertex="1">
          <mxGeometry y="78" width="160" height="40" as="geometry" />
        </mxCell>
        <mxCell id="wGFnZ818MzuRewItJlfe-29" value="Point " style="swimlane;fontStyle=1;align=center;verticalAlign=top;childLayout=stackLayout;horizontal=1;startSize=26;horizontalStack=0;resizeParent=1;resizeParentMax=0;resizeLast=0;collapsible=1;marginBottom=0;fillColor=#f8cecc;strokeColor=#b85450;" parent="1" vertex="1">
          <mxGeometry x="1070" y="400" width="160" height="118" as="geometry" />
        </mxCell>
        <mxCell id="wGFnZ818MzuRewItJlfe-30" value="+x:float&#xa;+y:float" style="text;strokeColor=none;fillColor=none;align=left;verticalAlign=top;spacingLeft=4;spacingRight=4;overflow=hidden;rotatable=0;points=[[0,0.5],[1,0.5]];portConstraint=eastwest;" parent="wGFnZ818MzuRewItJlfe-29" vertex="1">
          <mxGeometry y="26" width="160" height="44" as="geometry" />
        </mxCell>
        <mxCell id="wGFnZ818MzuRewItJlfe-31" value="" style="line;strokeWidth=1;fillColor=none;align=left;verticalAlign=middle;spacingTop=-1;spacingLeft=3;spacingRight=3;rotatable=0;labelPosition=right;points=[];portConstraint=eastwest;" parent="wGFnZ818MzuRewItJlfe-29" vertex="1">
          <mxGeometry y="70" width="160" height="8" as="geometry" />
        </mxCell>
        <mxCell id="wGFnZ818MzuRewItJlfe-32" value="+Point(float, float)" style="text;strokeColor=none;fillColor=none;align=left;verticalAlign=top;spacingLeft=4;spacingRight=4;overflow=hidden;rotatable=0;points=[[0,0.5],[1,0.5]];portConstraint=eastwest;" parent="wGFnZ818MzuRewItJlfe-29" vertex="1">
          <mxGeometry y="78" width="160" height="40" as="geometry" />
        </mxCell>
        <mxCell id="JQJBPX6uNaWDzKnNSsgi-2" value="Circle&#xa;" style="swimlane;fontStyle=1;align=center;verticalAlign=top;childLayout=stackLayout;horizontal=1;startSize=26;horizontalStack=0;resizeParent=1;resizeParentMax=0;resizeLast=0;collapsible=1;marginBottom=0;fillColor=#f8cecc;strokeColor=#b85450;" vertex="1" parent="1">
          <mxGeometry x="1300" y="80" width="160" height="180" as="geometry" />
        </mxCell>
        <mxCell id="JQJBPX6uNaWDzKnNSsgi-3" value="+center:Point&#xa;+radius:float" style="text;strokeColor=none;fillColor=none;align=left;verticalAlign=top;spacingLeft=4;spacingRight=4;overflow=hidden;rotatable=0;points=[[0,0.5],[1,0.5]];portConstraint=eastwest;" vertex="1" parent="JQJBPX6uNaWDzKnNSsgi-2">
          <mxGeometry y="26" width="160" height="44" as="geometry" />
        </mxCell>
        <mxCell id="JQJBPX6uNaWDzKnNSsgi-4" value="" style="line;strokeWidth=1;fillColor=none;align=left;verticalAlign=middle;spacingTop=-1;spacingLeft=3;spacingRight=3;rotatable=0;labelPosition=right;points=[];portConstraint=eastwest;" vertex="1" parent="JQJBPX6uNaWDzKnNSsgi-2">
          <mxGeometry y="70" width="160" height="8" as="geometry" />
        </mxCell>
        <mxCell id="JQJBPX6uNaWDzKnNSsgi-5" value="+Circle(Point , float)&#xa;+isInside(Point):boolean&#xa;+getCenter():Point&#xa;+setCenter(Point):void&#xa;+getRadius():float&#xa;+setRadius(float):void&#xa;" style="text;strokeColor=none;fillColor=none;align=left;verticalAlign=top;spacingLeft=4;spacingRight=4;overflow=hidden;rotatable=0;points=[[0,0.5],[1,0.5]];portConstraint=eastwest;" vertex="1" parent="JQJBPX6uNaWDzKnNSsgi-2">
          <mxGeometry y="78" width="160" height="102" as="geometry" />
        </mxCell>
        <mxCell id="P_GiTQXY6lSVG06fz7WC-1" value="&lt;&lt;TimeSeriesAnomalyDetector&gt;&gt;&#xa;" style="swimlane;fontStyle=3;align=center;verticalAlign=top;childLayout=stackLayout;horizontal=1;startSize=26;horizontalStack=0;resizeParent=1;resizeLast=0;collapsible=1;marginBottom=0;rounded=0;shadow=0;strokeWidth=1;fillColor=#f8cecc;strokeColor=#b85450;" vertex="1" collapsed="1" parent="1">
          <mxGeometry x="60" y="20" width="210" height="26" as="geometry">
            <mxRectangle x="60" y="20" width="240" height="90" as="alternateBounds" />
          </mxGeometry>
        </mxCell>
        <mxCell id="P_GiTQXY6lSVG06fz7WC-2" value="" style="line;html=1;strokeWidth=1;align=left;verticalAlign=middle;spacingTop=-1;spacingLeft=3;spacingRight=3;rotatable=0;labelPosition=right;points=[];portConstraint=eastwest;" vertex="1" parent="P_GiTQXY6lSVG06fz7WC-1">
          <mxGeometry y="26" width="240" height="8" as="geometry" />
        </mxCell>
        <mxCell id="P_GiTQXY6lSVG06fz7WC-3" value="+learnNormal(TimeSeries): void&#xa;+detect(TimeSeries): List&lt;AnomalyReport&gt;" style="text;align=left;verticalAlign=top;spacingLeft=4;spacingRight=4;overflow=hidden;rotatable=0;points=[[0,0.5],[1,0.5]];portConstraint=eastwest;" vertex="1" parent="P_GiTQXY6lSVG06fz7WC-1">
          <mxGeometry y="34" width="240" height="50" as="geometry" />
        </mxCell>
        <mxCell id="jTVwwHy7jeEzYKYzyxiW-1" value="SimpleAnomalyDetector" style="swimlane;fontStyle=1;align=center;verticalAlign=top;childLayout=stackLayout;horizontal=1;startSize=26;horizontalStack=0;resizeParent=1;resizeLast=0;collapsible=1;marginBottom=0;rounded=0;shadow=0;strokeWidth=1;fillColor=#f8cecc;strokeColor=#b85450;" vertex="1" parent="1">
          <mxGeometry x="410" y="290" width="360" height="220" as="geometry">
            <mxRectangle x="410" y="290" width="160" height="26" as="alternateBounds" />
          </mxGeometry>
        </mxCell>
        <mxCell id="jTVwwHy7jeEzYKYzyxiW-3" value="+timeStep: int&#xa;+threshold: float&#xa;+correlatedFeatures: List&lt;CorrelatedFeaturesLiner&gt;&#xa;+anomalyReports: List &lt;AnomalyReport&gt;&#xa;&#xa;correlatedFeatures&#xa;" style="text;align=left;verticalAlign=top;spacingLeft=4;spacingRight=4;overflow=hidden;rotatable=0;points=[[0,0.5],[1,0.5]];portConstraint=eastwest;fontStyle=0" vertex="1" parent="jTVwwHy7jeEzYKYzyxiW-1">
          <mxGeometry y="26" width="360" height="64" as="geometry" />
        </mxCell>
        <mxCell id="jTVwwHy7jeEzYKYzyxiW-4" value="" style="line;html=1;strokeWidth=1;align=left;verticalAlign=middle;spacingTop=-1;spacingLeft=3;spacingRight=3;rotatable=0;labelPosition=right;points=[];portConstraint=eastwest;" vertex="1" parent="jTVwwHy7jeEzYKYzyxiW-1">
          <mxGeometry y="90" width="360" height="8" as="geometry" />
        </mxCell>
        <mxCell id="jTVwwHy7jeEzYKYzyxiW-5" value="+SimpleAnomalyDetector()&#xa;+getCorrelatedFeatures():List&lt;CorrelatedFeaturesLiner&gt;&#xa;+SetCorrelatedFeatures(List&lt;CorrelatedFeaturesLiner&gt;):void&#xa;+getThreshold(): float&#xa;+setThreshold(float):void&#xa;+getTimeStep():int &#xa;+learnNormal(TimeSeries): void&#xa;+detect(TimeSeries): List&lt;AnomalyReport&gt;&#xa;&#xa;" style="text;align=left;verticalAlign=middle;spacingLeft=4;spacingRight=4;overflow=hidden;rotatable=0;points=[[0,0.5],[1,0.5]];portConstraint=eastwest;" vertex="1" parent="jTVwwHy7jeEzYKYzyxiW-1">
          <mxGeometry y="98" width="360" height="122" as="geometry" />
        </mxCell>
        <mxCell id="epJ3I4vK5Hq8R7MwJqjD-1" value="TimeSeries" style="swimlane;fontStyle=1;align=center;verticalAlign=top;childLayout=stackLayout;horizontal=1;startSize=26;horizontalStack=0;resizeParent=1;resizeParentMax=0;resizeLast=0;collapsible=1;marginBottom=0;fillColor=#f8cecc;strokeColor=#b85450;" vertex="1" parent="1">
          <mxGeometry x="-530" y="10" width="160" height="194" as="geometry">
            <mxRectangle x="-240" y="10" width="100" height="26" as="alternateBounds" />
          </mxGeometry>
        </mxCell>
        <mxCell id="epJ3I4vK5Hq8R7MwJqjD-2" value="+name: list&lt;String&gt;&#xa;+values: list&lt;Float[]&gt;&#xa;+timeStep:int" style="text;strokeColor=none;fillColor=none;align=left;verticalAlign=middle;spacingLeft=4;spacingRight=4;overflow=hidden;rotatable=0;points=[[0,0.5],[1,0.5]];portConstraint=eastwest;" vertex="1" parent="epJ3I4vK5Hq8R7MwJqjD-1">
          <mxGeometry y="26" width="160" height="54" as="geometry" />
        </mxCell>
        <mxCell id="epJ3I4vK5Hq8R7MwJqjD-3" value="" style="line;strokeWidth=1;fillColor=none;align=left;verticalAlign=middle;spacingTop=-1;spacingLeft=3;spacingRight=3;rotatable=0;labelPosition=right;points=[];portConstraint=eastwest;" vertex="1" parent="epJ3I4vK5Hq8R7MwJqjD-1">
          <mxGeometry y="80" width="160" height="8" as="geometry" />
        </mxCell>
        <mxCell id="epJ3I4vK5Hq8R7MwJqjD-4" value="+TimeSeries(String)&#xa;+toString(float[]):String[]&#xa;+getCol(String[]): float[]&#xa;+getCol(Integer):float[]&#xa;+toFloat(String[]): Float[]&#xa;+getLine(int):Float[]&#xa;+getTimeStep():int" style="text;strokeColor=none;fillColor=none;align=left;verticalAlign=middle;spacingLeft=4;spacingRight=4;overflow=hidden;rotatable=0;points=[[0,0.5],[1,0.5]];portConstraint=eastwest;" vertex="1" parent="epJ3I4vK5Hq8R7MwJqjD-1">
          <mxGeometry y="88" width="160" height="106" as="geometry" />
        </mxCell>
        <mxCell id="XUtd-jX644gBCB-yzTLU-1" value="correlatedFeatures" style="swimlane;fontStyle=1;align=center;verticalAlign=top;childLayout=stackLayout;horizontal=1;startSize=26;horizontalStack=0;resizeParent=1;resizeParentMax=0;resizeLast=0;collapsible=1;marginBottom=0;fillColor=#f8cecc;strokeColor=#b85450;" vertex="1" parent="1">
          <mxGeometry x="70" y="630" width="260" height="120" as="geometry">
            <mxRectangle x="-370" y="130" width="140" height="26" as="alternateBounds" />
          </mxGeometry>
        </mxCell>
        <mxCell id="XUtd-jX644gBCB-yzTLU-2" value="+FEATURE1:String&#xa;+FEATURE2:String&#xa;+CORRLATION:float&#xa;" style="text;strokeColor=none;fillColor=none;align=left;verticalAlign=top;spacingLeft=4;spacingRight=4;overflow=hidden;rotatable=0;points=[[0,0.5],[1,0.5]];portConstraint=eastwest;fontColor=#000000;" vertex="1" parent="XUtd-jX644gBCB-yzTLU-1">
          <mxGeometry y="26" width="260" height="54" as="geometry" />
        </mxCell>
        <mxCell id="XUtd-jX644gBCB-yzTLU-3" value="" style="line;strokeWidth=1;fillColor=none;align=left;verticalAlign=middle;spacingTop=-1;spacingLeft=3;spacingRight=3;rotatable=0;labelPosition=right;points=[];portConstraint=eastwest;fontColor=#FF3399;" vertex="1" parent="XUtd-jX644gBCB-yzTLU-1">
          <mxGeometry y="80" width="260" height="8" as="geometry" />
        </mxCell>
        <mxCell id="XUtd-jX644gBCB-yzTLU-4" value="+correlatedFeatures(String,String,float)" style="text;strokeColor=none;fillColor=none;align=left;verticalAlign=top;spacingLeft=4;spacingRight=4;overflow=hidden;rotatable=0;points=[[0,0.5],[1,0.5]];portConstraint=eastwest;fontColor=#000000;fontStyle=0" vertex="1" parent="XUtd-jX644gBCB-yzTLU-1">
          <mxGeometry y="88" width="260" height="32" as="geometry" />
        </mxCell>
        <mxCell id="cUdnfee4J2Q4BkXXmYuH-1" value="AnomalyReport" style="swimlane;fontStyle=1;align=center;verticalAlign=top;childLayout=stackLayout;horizontal=1;startSize=26;horizontalStack=0;resizeParent=1;resizeParentMax=0;resizeLast=0;collapsible=1;marginBottom=0;fillColor=#f8cecc;strokeColor=#b85450;" vertex="1" parent="1">
          <mxGeometry x="-450" y="270" width="210" height="150" as="geometry" />
        </mxCell>
        <mxCell id="cUdnfee4J2Q4BkXXmYuH-2" value="+ DESCRIPTION: String&#xa;+ TIMESTEP: long&#xa;" style="text;strokeColor=none;fillColor=none;align=left;verticalAlign=top;spacingLeft=4;spacingRight=4;overflow=hidden;rotatable=0;points=[[0,0.5],[1,0.5]];portConstraint=eastwest;fontColor=#000000;" vertex="1" parent="cUdnfee4J2Q4BkXXmYuH-1">
          <mxGeometry y="26" width="210" height="54" as="geometry" />
        </mxCell>
        <mxCell id="cUdnfee4J2Q4BkXXmYuH-3" value="" style="line;strokeWidth=1;fillColor=none;align=left;verticalAlign=middle;spacingTop=-1;spacingLeft=3;spacingRight=3;rotatable=0;labelPosition=right;points=[];portConstraint=eastwest;fontColor=#000000;" vertex="1" parent="cUdnfee4J2Q4BkXXmYuH-1">
          <mxGeometry y="80" width="210" height="8" as="geometry" />
        </mxCell>
        <mxCell id="cUdnfee4J2Q4BkXXmYuH-4" value="+ AnomalyReport(String, long)" style="text;strokeColor=none;fillColor=none;align=left;verticalAlign=top;spacingLeft=4;spacingRight=4;overflow=hidden;rotatable=0;points=[[0,0.5],[1,0.5]];portConstraint=eastwest;fontColor=#000000;fontStyle=0" vertex="1" parent="cUdnfee4J2Q4BkXXmYuH-1">
          <mxGeometry y="88" width="210" height="62" as="geometry" />
        </mxCell>
        <mxCell id="sZQcOmVma0XdY6LIlIUO-1" value="correlatedFeaturesLiner" style="swimlane;fontStyle=1;align=center;verticalAlign=top;childLayout=stackLayout;horizontal=1;startSize=26;horizontalStack=0;resizeParent=1;resizeParentMax=0;resizeLast=0;collapsible=1;marginBottom=0;fillColor=#f8cecc;strokeColor=#b85450;" vertex="1" parent="1">
          <mxGeometry x="330" y="870" width="320" height="94" as="geometry" />
        </mxCell>
        <mxCell id="sZQcOmVma0XdY6LIlIUO-2" value="+ LIN_REG:Line&#xa;+THRESHOLD:float" style="text;strokeColor=none;fillColor=none;align=left;verticalAlign=middle;spacingLeft=4;spacingRight=4;overflow=hidden;rotatable=0;points=[[0,0.5],[1,0.5]];portConstraint=eastwest;fontColor=#FF3333;" vertex="1" parent="sZQcOmVma0XdY6LIlIUO-1">
          <mxGeometry y="26" width="320" height="34" as="geometry" />
        </mxCell>
        <mxCell id="sZQcOmVma0XdY6LIlIUO-3" value="" style="line;strokeWidth=1;fillColor=none;align=left;verticalAlign=middle;spacingTop=-1;spacingLeft=3;spacingRight=3;rotatable=0;labelPosition=right;points=[];portConstraint=eastwest;" vertex="1" parent="sZQcOmVma0XdY6LIlIUO-1">
          <mxGeometry y="60" width="320" height="8" as="geometry" />
        </mxCell>
        <mxCell id="sZQcOmVma0XdY6LIlIUO-4" value="+ correlatedFeaturesLiner(String , String ,float , Line , float)" style="text;strokeColor=none;fillColor=none;align=left;verticalAlign=top;spacingLeft=4;spacingRight=4;overflow=hidden;rotatable=0;points=[[0,0.5],[1,0.5]];portConstraint=eastwest;" vertex="1" parent="sZQcOmVma0XdY6LIlIUO-1">
          <mxGeometry y="68" width="320" height="26" as="geometry" />
        </mxCell>
        <mxCell id="sZQcOmVma0XdY6LIlIUO-9" value="HybridAlgorithm" style="swimlane;fontStyle=1;align=center;verticalAlign=middle;childLayout=stackLayout;horizontal=1;startSize=26;horizontalStack=0;resizeParent=1;resizeParentMax=0;resizeLast=0;collapsible=1;marginBottom=0;fillColor=#f8cecc;strokeColor=#b85450;" vertex="1" parent="1">
          <mxGeometry x="-190" y="140" width="310" height="140" as="geometry" />
        </mxCell>
        <mxCell id="sZQcOmVma0XdY6LIlIUO-10" value="+mapLiner:HashMap&lt;String,CorrelatedFeatureLiner&gt;&#xa;+mapCircle:HashMap&lt;String , CorrelatedFeatureCircle&gt;&#xa;+mapZ:HashMap&lt;String,float&gt;" style="text;strokeColor=none;fillColor=none;align=left;verticalAlign=middle;spacingLeft=4;spacingRight=4;overflow=hidden;rotatable=0;points=[[0,0.5],[1,0.5]];portConstraint=eastwest;" vertex="1" parent="sZQcOmVma0XdY6LIlIUO-9">
          <mxGeometry y="26" width="310" height="54" as="geometry" />
        </mxCell>
        <mxCell id="sZQcOmVma0XdY6LIlIUO-11" value="" style="line;strokeWidth=1;fillColor=none;align=left;verticalAlign=middle;spacingTop=-1;spacingLeft=3;spacingRight=3;rotatable=0;labelPosition=right;points=[];portConstraint=eastwest;" vertex="1" parent="sZQcOmVma0XdY6LIlIUO-9">
          <mxGeometry y="80" width="310" height="8" as="geometry" />
        </mxCell>
        <mxCell id="sZQcOmVma0XdY6LIlIUO-12" value="+ HybridAlgorithm(): &#xa;+learnNormal(TimeSeries):void&#xa;+detect(TimeSeries):List&lt;AnomalyReport&gt;" style="text;strokeColor=none;fillColor=none;align=left;verticalAlign=middle;spacingLeft=4;spacingRight=4;overflow=hidden;rotatable=0;points=[[0,0.5],[1,0.5]];portConstraint=eastwest;" vertex="1" parent="sZQcOmVma0XdY6LIlIUO-9">
          <mxGeometry y="88" width="310" height="52" as="geometry" />
        </mxCell>
        <mxCell id="sZQcOmVma0XdY6LIlIUO-13" value="MathLib" style="swimlane;fontStyle=1;align=center;verticalAlign=top;childLayout=stackLayout;horizontal=1;startSize=26;horizontalStack=0;resizeParent=1;resizeParentMax=0;resizeLast=0;collapsible=1;marginBottom=0;fillColor=#f8cecc;strokeColor=#b85450;" vertex="1" parent="1">
          <mxGeometry x="1010" y="100" width="260" height="130" as="geometry" />
        </mxCell>
        <mxCell id="sZQcOmVma0XdY6LIlIUO-15" value="" style="line;strokeWidth=1;fillColor=none;align=left;verticalAlign=middle;spacingTop=-1;spacingLeft=3;spacingRight=3;rotatable=0;labelPosition=right;points=[];portConstraint=eastwest;" vertex="1" parent="sZQcOmVma0XdY6LIlIUO-13">
          <mxGeometry y="26" width="260" height="8" as="geometry" />
        </mxCell>
        <mxCell id="sZQcOmVma0XdY6LIlIUO-16" value="+ euclideanDist(Point,Point): float&#xa;+getCircleCenter(float,float,float,float):Point&#xa;+CircleFrom(Point,Point,Point):Circle&#xa;+CircleFrom(Point,Point):Circle&#xa;+isValidCircle(Circle,ArrayList&lt;Point&gt;):boolean&#xa;+minCircleTrivial(ArrayList&lt;Point&gt;):Circle" style="text;strokeColor=none;fillColor=none;align=left;verticalAlign=middle;spacingLeft=4;spacingRight=4;overflow=hidden;rotatable=0;points=[[0,0.5],[1,0.5]];portConstraint=eastwest;fontStyle=4" vertex="1" parent="sZQcOmVma0XdY6LIlIUO-13">
          <mxGeometry y="34" width="260" height="96" as="geometry" />
        </mxCell>
        <mxCell id="sZQcOmVma0XdY6LIlIUO-17" style="edgeStyle=elbowEdgeStyle;rounded=0;orthogonalLoop=1;jettySize=auto;elbow=vertical;html=1;exitX=0.562;exitY=-0.019;exitDx=0;exitDy=0;entryX=0.875;entryY=1.096;entryDx=0;entryDy=0;entryPerimeter=0;endArrow=block;endFill=0;startSize=12;strokeColor=#000000;exitPerimeter=0;" edge="1" parent="1" source="sZQcOmVma0XdY6LIlIUO-1">
          <mxGeometry relative="1" as="geometry">
            <mxPoint x="419.99999999999955" y="847.5" as="sourcePoint" />
            <mxPoint x="240" y="749.9960000000001" as="targetPoint" />
            <Array as="points">
              <mxPoint x="160" y="810" />
            </Array>
          </mxGeometry>
        </mxCell>
        <mxCell id="sZQcOmVma0XdY6LIlIUO-18" style="rounded=0;orthogonalLoop=1;jettySize=auto;html=1;exitX=0.5;exitY=0;exitDx=0;exitDy=0;endArrow=block;endFill=0;strokeColor=#000000;entryX=0.119;entryY=1.096;entryDx=0;entryDy=0;entryPerimeter=0;startSize=12;edgeStyle=elbowEdgeStyle;elbow=vertical;startArrow=none;" edge="1" parent="1" source="sZQcOmVma0XdY6LIlIUO-5">
          <mxGeometry relative="1" as="geometry">
            <mxPoint x="159.99999999999997" y="749.9960000000001" as="targetPoint" />
            <mxPoint x="-19.04" y="847.5" as="sourcePoint" />
            <Array as="points">
              <mxPoint x="190" y="800" />
            </Array>
          </mxGeometry>
        </mxCell>
        <mxCell id="sZQcOmVma0XdY6LIlIUO-5" value="correlatedFeaturesCircle" style="swimlane;fontStyle=1;align=center;verticalAlign=top;childLayout=stackLayout;horizontal=1;startSize=26;horizontalStack=0;resizeParent=1;resizeParentMax=0;resizeLast=0;collapsible=1;marginBottom=0;fillColor=#f8cecc;strokeColor=#b85450;" vertex="1" parent="1">
          <mxGeometry x="-110" y="860" width="310" height="86" as="geometry" />
        </mxCell>
        <mxCell id="sZQcOmVma0XdY6LIlIUO-6" value="+ CIRCLE: Circle" style="text;strokeColor=none;fillColor=none;align=left;verticalAlign=top;spacingLeft=4;spacingRight=4;overflow=hidden;rotatable=0;points=[[0,0.5],[1,0.5]];portConstraint=eastwest;" vertex="1" parent="sZQcOmVma0XdY6LIlIUO-5">
          <mxGeometry y="26" width="310" height="26" as="geometry" />
        </mxCell>
        <mxCell id="sZQcOmVma0XdY6LIlIUO-7" value="" style="line;strokeWidth=1;fillColor=none;align=left;verticalAlign=middle;spacingTop=-1;spacingLeft=3;spacingRight=3;rotatable=0;labelPosition=right;points=[];portConstraint=eastwest;" vertex="1" parent="sZQcOmVma0XdY6LIlIUO-5">
          <mxGeometry y="52" width="310" height="8" as="geometry" />
        </mxCell>
        <mxCell id="sZQcOmVma0XdY6LIlIUO-8" value="+ correlatedFeaturesCircle(String , String ,float , Circle)" style="text;strokeColor=none;fillColor=none;align=left;verticalAlign=top;spacingLeft=4;spacingRight=4;overflow=hidden;rotatable=0;points=[[0,0.5],[1,0.5]];portConstraint=eastwest;fontStyle=0" vertex="1" parent="sZQcOmVma0XdY6LIlIUO-5">
          <mxGeometry y="60" width="310" height="26" as="geometry" />
        </mxCell>
        <mxCell id="sZQcOmVma0XdY6LIlIUO-26" style="edgeStyle=elbowEdgeStyle;rounded=0;orthogonalLoop=1;jettySize=auto;elbow=vertical;html=1;endArrow=block;endFill=0;startSize=12;strokeColor=#000000;exitX=0.5;exitY=0;exitDx=0;exitDy=0;dashed=1;entryX=1;entryY=1;entryDx=0;entryDy=0;" edge="1" parent="1" source="jTVwwHy7jeEzYKYzyxiW-1" target="P_GiTQXY6lSVG06fz7WC-1">
          <mxGeometry relative="1" as="geometry">
            <mxPoint x="477.48" y="290.00399999999996" as="sourcePoint" />
            <mxPoint x="250" y="110" as="targetPoint" />
            <Array as="points">
              <mxPoint x="310" y="115.18" />
            </Array>
          </mxGeometry>
        </mxCell>
        <mxCell id="sZQcOmVma0XdY6LIlIUO-27" style="edgeStyle=elbowEdgeStyle;rounded=0;orthogonalLoop=1;jettySize=auto;elbow=vertical;html=1;endArrow=block;endFill=0;startSize=12;strokeColor=#000000;exitX=0.5;exitY=0;exitDx=0;exitDy=0;dashed=1;" edge="1" parent="1" source="wGFnZ818MzuRewItJlfe-5" target="P_GiTQXY6lSVG06fz7WC-1">
          <mxGeometry relative="1" as="geometry">
            <mxPoint x="298.96000000000004" y="288.79200000000003" as="sourcePoint" />
            <mxPoint x="190" y="40" as="targetPoint" />
            <Array as="points">
              <mxPoint x="210" y="151.2" />
            </Array>
          </mxGeometry>
        </mxCell>
        <mxCell id="sZQcOmVma0XdY6LIlIUO-28" style="edgeStyle=elbowEdgeStyle;rounded=0;orthogonalLoop=1;jettySize=auto;elbow=vertical;html=1;exitX=0.573;exitY=0.017;exitDx=0;exitDy=0;endArrow=block;endFill=0;startSize=12;strokeColor=#000000;dashed=1;entryX=0.5;entryY=1;entryDx=0;entryDy=0;exitPerimeter=0;" edge="1" parent="1" source="wGFnZ818MzuRewItJlfe-13" target="P_GiTQXY6lSVG06fz7WC-1">
          <mxGeometry relative="1" as="geometry">
            <mxPoint x="100" y="350" as="sourcePoint" />
            <mxPoint x="160" y="110" as="targetPoint" />
            <Array as="points">
              <mxPoint x="90" y="330" />
            </Array>
          </mxGeometry>
        </mxCell>
      </root>
    </mxGraphModel>
  </diagram>
</mxfile>
